<svg xmlns="http://www.w3.org/2000/svg" xmlns:xlink="http://www.w3.org/1999/xlink" width="500" zoomAndPan="magnify" viewBox="0 0 375 374.999991" height="500" preserveAspectRatio="xMidYMid meet" version="1.0"><defs><clipPath id="2be362273c"><path d="M 37.5 37.5 L 337.5 37.5 L 337.5 337.5 L 37.5 337.5 Z M 37.5 37.5 " clip-rule="nonzero"/></clipPath></defs><rect x="-37.5" width="450" fill="#ffffff" y="-37.499999" height="449.999989" fill-opacity="1"/><rect x="-37.5" width="450" fill="#ffffff" y="-37.499999" height="449.999989" fill-opacity="1"/><g clip-path="url(#2be362273c)"><path fill="#c29473" d="M 187.5 337.5 C 104.773438 337.5 37.5 270.226562 37.5 187.5 C 37.5 104.773438 104.773438 37.5 187.5 37.5 C 270.226562 37.5 337.5 104.773438 337.5 187.5 C 337.5 270.226562 270.226562 337.5 187.5 337.5 Z M 187.5 46.398438 C 109.691406 46.398438 46.398438 109.691406 46.398438 187.5 C 46.398438 265.308594 109.691406 328.601562 187.5 328.601562 C 265.308594 328.601562 328.601562 265.308594 328.601562 187.5 C 328.601562 109.691406 265.308594 46.398438 187.5 46.398438 Z M 187.5 46.398438 " fill-opacity="1" fill-rule="nonzero"/></g><path fill="#c29473" d="M 201.3125 227.457031 L 185.003906 227.457031 L 185.003906 182.816406 L 185.160156 175.480469 L 185.394531 167.441406 C 182.660156 170.175781 180.789062 171.96875 179.773438 172.75 L 170.875 179.851562 L 162.996094 170.019531 L 187.890625 150.195312 L 201.3125 150.195312 Z M 201.3125 227.457031 " fill-opacity="1" fill-rule="nonzero"/></svg>