<svg xmlns="http://www.w3.org/2000/svg" xmlns:xlink="http://www.w3.org/1999/xlink" width="500" zoomAndPan="magnify" viewBox="0 0 375 374.999991" height="500" preserveAspectRatio="xMidYMid meet" version="1.0"><defs><clipPath id="fe4a5bcee8"><path d="M 37.5 37.5 L 337.5 37.5 L 337.5 337.5 L 37.5 337.5 Z M 37.5 37.5 " clip-rule="nonzero"/></clipPath></defs><rect x="-37.5" width="450" fill="#ffffff" y="-37.499999" height="449.999989" fill-opacity="1"/><rect x="-37.5" width="450" fill="#ffffff" y="-37.499999" height="449.999989" fill-opacity="1"/><g clip-path="url(#fe4a5bcee8)"><path fill="#c29473" d="M 187.5 337.5 C 104.773438 337.5 37.5 270.226562 37.5 187.5 C 37.5 104.773438 104.773438 37.5 187.5 37.5 C 270.226562 37.5 337.5 104.773438 337.5 187.5 C 337.5 270.226562 270.226562 337.5 187.5 337.5 Z M 187.5 46.398438 C 109.691406 46.398438 46.398438 109.691406 46.398438 187.5 C 46.398438 265.308594 109.691406 328.601562 187.5 328.601562 C 265.308594 328.601562 328.601562 265.308594 328.601562 187.5 C 328.601562 109.691406 265.308594 46.398438 187.5 46.398438 Z M 187.5 46.398438 " fill-opacity="1" fill-rule="nonzero"/></g><path fill="#c29473" d="M 214.972656 227.457031 L 160.964844 227.457031 L 160.964844 216.140625 L 180.320312 196.554688 C 186.09375 190.699219 189.839844 186.5625 191.558594 184.300781 C 193.351562 182.035156 194.601562 179.929688 195.382812 177.980469 C 196.164062 176.027344 196.554688 174 196.554688 171.96875 C 196.554688 168.847656 195.695312 166.585938 193.976562 165.023438 C 192.261719 163.539062 189.996094 162.761719 187.109375 162.761719 C 184.144531 162.761719 181.179688 163.460938 178.367188 164.789062 C 175.558594 166.195312 172.59375 168.144531 169.550781 170.640625 L 160.730469 160.183594 C 164.554688 156.984375 167.675781 154.644531 170.175781 153.316406 C 172.671875 151.988281 175.402344 150.976562 178.367188 150.195312 C 181.335938 149.492188 184.613281 149.101562 188.28125 149.101562 C 193.121094 149.101562 197.332031 149.960938 201.078125 151.757812 C 204.746094 153.550781 207.636719 155.96875 209.664062 159.171875 C 211.695312 162.371094 212.707031 165.960938 212.707031 170.019531 C 212.707031 173.609375 212.082031 176.886719 210.835938 180.007812 C 209.585938 183.128906 207.636719 186.328125 205.058594 189.605469 C 202.40625 192.886719 197.800781 197.566406 191.167969 203.578125 L 181.257812 212.941406 L 181.257812 213.644531 L 214.894531 213.644531 L 214.894531 227.457031 Z M 214.972656 227.457031 " fill-opacity="1" fill-rule="nonzero"/></svg>