<svg xmlns="http://www.w3.org/2000/svg" xmlns:xlink="http://www.w3.org/1999/xlink" width="500" zoomAndPan="magnify" viewBox="0 0 375 374.999991" height="500" preserveAspectRatio="xMidYMid meet" version="1.0"><defs><clipPath id="8806f0e411"><path d="M 37.5 37.5 L 337.5 37.5 L 337.5 337.5 L 37.5 337.5 Z M 37.5 37.5 " clip-rule="nonzero"/></clipPath></defs><rect x="-37.5" width="450" fill="#ffffff" y="-37.499999" height="449.999989" fill-opacity="1"/><rect x="-37.5" width="450" fill="#ffffff" y="-37.499999" height="449.999989" fill-opacity="1"/><g clip-path="url(#8806f0e411)"><path fill="#c29473" d="M 187.5 337.5 C 104.773438 337.5 37.5 270.226562 37.5 187.5 C 37.5 104.773438 104.773438 37.5 187.5 37.5 C 270.226562 37.5 337.5 104.773438 337.5 187.5 C 337.5 270.226562 270.226562 337.5 187.5 337.5 Z M 187.5 46.398438 C 109.691406 46.398438 46.398438 109.691406 46.398438 187.5 C 46.398438 265.308594 109.691406 328.601562 187.5 328.601562 C 265.308594 328.601562 328.601562 265.308594 328.601562 187.5 C 328.601562 109.691406 265.308594 46.398438 187.5 46.398438 Z M 187.5 46.398438 " fill-opacity="1" fill-rule="nonzero"/></g><path fill="#c29473" d="M 211.925781 167.519531 C 211.925781 172.359375 210.445312 176.417969 207.558594 179.851562 C 204.667969 183.207031 200.535156 185.550781 195.226562 186.796875 L 195.226562 187.109375 C 201.46875 187.890625 206.152344 189.761719 209.351562 192.808594 C 212.550781 195.851562 214.191406 199.910156 214.191406 204.980469 C 214.191406 212.394531 211.460938 218.171875 206.074219 222.308594 C 200.6875 226.445312 192.964844 228.550781 182.972656 228.550781 C 174.621094 228.550781 167.128906 227.144531 160.652344 224.414062 L 160.652344 210.523438 C 163.617188 212.003906 166.972656 213.253906 170.566406 214.191406 C 174.15625 215.128906 177.746094 215.597656 181.257812 215.597656 C 186.640625 215.597656 190.621094 214.660156 193.195312 212.863281 C 195.773438 211.070312 197.019531 208.105469 197.019531 204.046875 C 197.019531 200.457031 195.539062 197.878906 192.574219 196.320312 C 189.605469 194.757812 184.925781 194.054688 178.445312 194.054688 L 172.59375 194.054688 L 172.59375 181.570312 L 178.523438 181.570312 C 184.535156 181.570312 188.90625 180.789062 191.636719 179.226562 C 194.367188 177.667969 195.773438 175.011719 195.773438 171.1875 C 195.773438 165.335938 192.105469 162.449219 184.769531 162.449219 C 182.269531 162.449219 179.617188 162.839844 177.042969 163.695312 C 174.386719 164.554688 171.5 166.039062 168.300781 168.066406 L 160.730469 156.828125 C 167.753906 151.757812 176.183594 149.257812 185.9375 149.257812 C 193.898438 149.257812 200.222656 150.898438 204.902344 154.097656 C 209.585938 157.296875 211.925781 161.746094 211.925781 167.519531 Z M 211.925781 167.519531 " fill-opacity="1" fill-rule="nonzero"/></svg>