<svg xmlns="http://www.w3.org/2000/svg" xmlns:xlink="http://www.w3.org/1999/xlink" width="500" zoomAndPan="magnify" viewBox="0 0 375 374.999991" height="500" preserveAspectRatio="xMidYMid meet" version="1.0"><defs><clipPath id="42dccb8bd6"><path d="M 37.5 37.5 L 337.5 37.5 L 337.5 337.5 L 37.5 337.5 Z M 37.5 37.5 " clip-rule="nonzero"/></clipPath></defs><rect x="-37.5" width="450" fill="#ffffff" y="-37.499999" height="449.999989" fill-opacity="1"/><rect x="-37.5" width="450" fill="#ffffff" y="-37.499999" height="449.999989" fill-opacity="1"/><g clip-path="url(#42dccb8bd6)"><path fill="#c29473" d="M 187.5 337.5 C 104.773438 337.5 37.5 270.226562 37.5 187.5 C 37.5 104.773438 104.773438 37.5 187.5 37.5 C 270.226562 37.5 337.5 104.773438 337.5 187.5 C 337.5 270.226562 270.226562 337.5 187.5 337.5 Z M 187.5 46.398438 C 109.691406 46.398438 46.398438 109.691406 46.398438 187.5 C 46.398438 265.308594 109.691406 328.601562 187.5 328.601562 C 265.308594 328.601562 328.601562 265.308594 328.601562 187.5 C 328.601562 109.691406 265.308594 46.398438 187.5 46.398438 Z M 187.5 46.398438 " fill-opacity="1" fill-rule="nonzero"/></g><path fill="#c29473" d="M 216.6875 211.460938 L 207.402344 211.460938 L 207.402344 227.457031 L 191.480469 227.457031 L 191.480469 211.460938 L 158.546875 211.460938 L 158.546875 200.144531 L 192.417969 150.273438 L 207.402344 150.273438 L 207.402344 198.816406 L 216.6875 198.816406 Z M 191.402344 198.816406 L 191.402344 185.703125 C 191.402344 183.519531 191.480469 180.320312 191.636719 176.183594 C 191.792969 172.046875 191.949219 169.628906 192.027344 168.925781 L 191.636719 168.925781 C 190.308594 171.8125 188.75 174.621094 186.953125 177.355469 L 172.828125 198.738281 L 191.402344 198.738281 Z M 191.402344 198.816406 " fill-opacity="1" fill-rule="nonzero"/></svg>