<svg xmlns="http://www.w3.org/2000/svg" xmlns:xlink="http://www.w3.org/1999/xlink" width="500" zoomAndPan="magnify" viewBox="0 0 375 374.999991" height="500" preserveAspectRatio="xMidYMid meet" version="1.0"><defs><clipPath id="b95d93732d"><path d="M 37.5 37.5 L 337.5 37.5 L 337.5 337.5 L 37.5 337.5 Z M 37.5 37.5 " clip-rule="nonzero"/></clipPath></defs><rect x="-37.5" width="450" fill="#ffffff" y="-37.499999" height="449.999989" fill-opacity="1"/><rect x="-37.5" width="450" fill="#ffffff" y="-37.499999" height="449.999989" fill-opacity="1"/><g clip-path="url(#b95d93732d)"><path fill="#c29473" d="M 187.5 337.5 C 104.773438 337.5 37.5 270.226562 37.5 187.5 C 37.5 104.773438 104.773438 37.5 187.5 37.5 C 270.226562 37.5 337.5 104.773438 337.5 187.5 C 337.5 270.226562 270.226562 337.5 187.5 337.5 Z M 187.5 46.398438 C 109.691406 46.398438 46.398438 109.691406 46.398438 187.5 C 46.398438 265.308594 109.691406 328.601562 187.5 328.601562 C 265.308594 328.601562 328.601562 265.308594 328.601562 187.5 C 328.601562 109.691406 265.308594 46.398438 187.5 46.398438 Z M 187.5 46.398438 " fill-opacity="1" fill-rule="nonzero"/></g><path fill="#c29473" d="M 189.0625 178.132812 C 196.554688 178.132812 202.484375 180.242188 206.855469 184.457031 C 211.304688 188.671875 213.488281 194.367188 213.488281 201.703125 C 213.488281 210.367188 210.835938 217 205.527344 221.605469 C 200.222656 226.210938 192.574219 228.550781 182.738281 228.550781 C 174.15625 228.550781 167.207031 227.144531 161.902344 224.414062 L 161.902344 210.289062 C 164.710938 211.773438 167.910156 212.941406 171.578125 213.878906 C 175.246094 214.816406 178.757812 215.285156 182.113281 215.285156 C 192.105469 215.285156 197.019531 211.226562 197.019531 203.03125 C 197.019531 195.226562 191.871094 191.324219 181.570312 191.324219 C 179.695312 191.324219 177.667969 191.480469 175.402344 191.871094 C 173.140625 192.261719 171.34375 192.652344 169.941406 193.042969 L 163.460938 189.527344 L 166.351562 150.195312 L 208.257812 150.195312 L 208.257812 164.085938 L 180.710938 164.085938 L 179.304688 179.226562 L 181.179688 178.835938 C 183.207031 178.367188 185.859375 178.132812 189.0625 178.132812 Z M 189.0625 178.132812 " fill-opacity="1" fill-rule="nonzero"/></svg>