<svg xmlns="http://www.w3.org/2000/svg" xmlns:xlink="http://www.w3.org/1999/xlink" width="500" zoomAndPan="magnify" viewBox="0 0 375 374.999991" height="500" preserveAspectRatio="xMidYMid meet" version="1.0"><rect x="-37.5" width="450" fill="#ffffff" y="-37.499999" height="449.999989" fill-opacity="1"/><rect x="-37.5" width="450" fill="#ffffff" y="-37.499999" height="449.999989" fill-opacity="1"/><path fill="#c29473" d="M 187.125 331.648438 C 107.625 331.648438 42.976562 267 42.976562 187.5 C 42.976562 108 107.625 43.351562 187.125 43.351562 C 266.625 43.351562 331.273438 108 331.273438 187.5 C 331.273438 267 266.625 331.648438 187.125 331.648438 Z M 187.125 51.898438 C 112.351562 51.898438 51.523438 112.726562 51.523438 187.5 C 51.523438 262.273438 112.351562 323.101562 187.125 323.101562 C 261.898438 323.101562 322.726562 262.273438 322.726562 187.5 C 322.726562 112.726562 261.898438 51.898438 187.125 51.898438 Z M 187.125 51.898438 " fill-opacity="1" fill-rule="nonzero"/><path fill="#c29473" d="M 161.101562 194.398438 C 161.101562 179.699219 164.175781 168.824219 170.398438 161.625 C 176.625 154.425781 185.925781 150.898438 198.300781 150.898438 C 202.5 150.898438 205.875 151.125 208.273438 151.648438 L 208.273438 164.175781 C 205.273438 163.5 202.273438 163.125 199.351562 163.125 C 193.949219 163.125 189.601562 163.949219 186.148438 165.523438 C 182.773438 167.175781 180.226562 169.574219 178.5 172.726562 C 176.773438 175.875 175.800781 180.449219 175.5 186.300781 L 176.175781 186.300781 C 179.550781 180.523438 184.875 177.675781 192.226562 177.675781 C 198.824219 177.675781 204.074219 179.773438 207.824219 183.898438 C 211.574219 188.023438 213.449219 193.800781 213.449219 201.148438 C 213.449219 209.101562 211.199219 215.324219 206.773438 219.976562 C 202.351562 224.625 196.125 226.875 188.175781 226.875 C 182.699219 226.875 177.898438 225.601562 173.851562 223.050781 C 169.800781 220.5 166.648438 216.824219 164.398438 211.949219 C 162.226562 207.148438 161.101562 201.300781 161.101562 194.398438 Z M 187.949219 214.425781 C 191.324219 214.425781 193.875 213.300781 195.675781 211.050781 C 197.476562 208.800781 198.375 205.574219 198.375 201.449219 C 198.375 197.851562 197.550781 195 195.898438 192.898438 C 194.25 190.800781 191.699219 189.75 188.324219 189.75 C 185.175781 189.75 182.398438 190.800781 180.148438 192.824219 C 177.898438 194.925781 176.773438 197.324219 176.773438 200.023438 C 176.773438 204.074219 177.824219 207.449219 179.925781 210.226562 C 181.949219 213 184.648438 214.425781 187.949219 214.425781 Z M 187.949219 214.425781 " fill-opacity="1" fill-rule="nonzero"/></svg>