<svg xmlns="http://www.w3.org/2000/svg" xmlns:xlink="http://www.w3.org/1999/xlink" width="500" zoomAndPan="magnify" viewBox="0 0 375 374.999991" height="500" preserveAspectRatio="xMidYMid meet" version="1.0"><defs><clipPath id="eb3cd8fc4d"><path d="M 37.5 78.953125 L 337.5 78.953125 L 337.5 295.703125 L 37.5 295.703125 Z M 37.5 78.953125 " clip-rule="nonzero"/></clipPath></defs><rect x="-37.5" width="450" fill="#ffffff" y="-37.499999" height="449.999989" fill-opacity="1"/><rect x="-37.5" width="450" fill="#ffffff" y="-37.499999" height="449.999989" fill-opacity="1"/><g clip-path="url(#eb3cd8fc4d)"><path fill="#c29473" d="M 311.550781 78.953125 L 63.449219 78.953125 C 49.183594 78.953125 37.605469 90.53125 37.605469 104.796875 L 37.605469 270.199219 C 37.605469 284.464844 49.183594 296.042969 63.449219 296.042969 L 311.550781 296.042969 C 325.816406 296.042969 337.394531 284.464844 337.394531 270.199219 L 337.394531 104.796875 C 337.394531 90.53125 325.816406 78.953125 311.550781 78.953125 Z M 240.582031 177.265625 L 325.300781 97.71875 C 326.386719 99.886719 327.058594 102.265625 327.058594 104.796875 L 327.058594 270.199219 C 327.058594 272.164062 326.644531 274.023438 325.972656 275.78125 Z M 311.550781 89.292969 C 313.773438 89.292969 315.894531 89.757812 317.753906 90.636719 L 187.5 212.929688 L 57.246094 90.636719 C 59.105469 89.757812 61.226562 89.292969 63.449219 89.292969 Z M 49.027344 275.78125 C 48.355469 274.023438 47.941406 272.164062 47.941406 270.199219 L 47.941406 104.796875 C 47.941406 102.265625 48.613281 99.886719 49.699219 97.769531 L 134.417969 177.316406 Z M 63.449219 285.707031 C 60.65625 285.707031 58.125 284.929688 55.851562 283.640625 L 141.960938 184.347656 L 183.933594 223.785156 C 184.914062 224.714844 186.207031 225.179688 187.449219 225.179688 C 188.6875 225.179688 189.980469 224.714844 190.964844 223.785156 L 232.933594 184.347656 L 319.148438 283.640625 C 316.875 284.929688 314.34375 285.707031 311.550781 285.707031 Z M 63.449219 285.707031 " fill-opacity="1" fill-rule="nonzero"/></g></svg>