<svg xmlns="http://www.w3.org/2000/svg" xmlns:xlink="http://www.w3.org/1999/xlink" width="500" zoomAndPan="magnify" viewBox="0 0 375 374.999991" height="500" preserveAspectRatio="xMidYMid meet" version="1.0"><rect x="-37.5" width="450" fill="#ffffff" y="-37.499999" height="449.999989" fill-opacity="1"/><rect x="-37.5" width="450" fill="#ffffff" y="-37.499999" height="449.999989" fill-opacity="1"/><path fill="#c29473" d="M 168.941406 45.640625 C 105.332031 52.691406 53.5 104.019531 45.824219 167.527344 C 45.578125 169.523438 45.371094 171.519531 45.207031 173.523438 C 45.046875 175.523438 44.925781 177.53125 44.851562 179.539062 C 44.773438 181.546875 44.738281 183.554688 44.75 185.5625 C 44.757812 187.570312 44.8125 189.578125 44.90625 191.585938 C 45.003906 193.59375 45.140625 195.597656 45.324219 197.597656 C 45.503906 199.597656 45.726562 201.59375 45.996094 203.585938 C 46.261719 205.578125 46.570312 207.5625 46.921875 209.542969 C 47.277344 211.519531 47.671875 213.488281 48.105469 215.449219 C 48.542969 217.410156 49.019531 219.363281 49.542969 221.300781 C 50.0625 223.242188 50.621094 225.171875 51.226562 227.089844 C 51.828125 229.003906 52.472656 230.90625 53.15625 232.796875 C 53.839844 234.6875 54.5625 236.558594 55.328125 238.417969 C 56.09375 240.277344 56.898438 242.117188 57.742188 243.941406 C 58.585938 245.761719 59.464844 247.566406 60.386719 249.355469 C 61.308594 251.140625 62.265625 252.90625 63.261719 254.648438 C 64.257812 256.394531 65.292969 258.117188 66.363281 259.816406 C 67.433594 261.515625 68.539062 263.195312 69.679688 264.847656 C 70.824219 266.5 72 268.128906 73.210938 269.730469 C 74.425781 271.332031 75.671875 272.910156 76.949219 274.457031 C 78.230469 276.007812 79.539062 277.527344 80.886719 279.019531 C 82.230469 280.511719 83.605469 281.976562 85.011719 283.410156 C 86.421875 284.84375 87.859375 286.246094 89.324219 287.621094 C 90.792969 288.992188 92.289062 290.332031 93.8125 291.640625 C 95.339844 292.949219 96.890625 294.222656 98.46875 295.464844 C 100.050781 296.707031 101.65625 297.914062 103.285156 299.085938 C 104.917969 300.261719 106.574219 301.398438 108.253906 302.5 C 109.933594 303.601562 111.636719 304.667969 113.363281 305.695312 C 115.085938 306.726562 116.835938 307.71875 118.601562 308.671875 C 120.371094 309.625 122.160156 310.539062 123.964844 311.417969 C 125.773438 312.296875 127.597656 313.132812 129.441406 313.933594 C 131.285156 314.734375 133.144531 315.492188 135.019531 316.210938 C 136.898438 316.929688 138.785156 317.609375 140.691406 318.25 C 147.710938 319.371094 149.957031 315.023438 149.957031 311.238281 L 149.957031 287.527344 C 111.101562 295.96875 102.832031 268.738281 102.832031 268.738281 C 96.394531 252.464844 87.261719 248.117188 87.261719 248.117188 C 74.492188 239.417969 88.253906 239.707031 88.253906 239.707031 C 102.273438 240.699219 109.710938 254.152344 109.710938 254.152344 C 121.914062 275.472656 142.527344 269.15625 150.523438 265.789062 C 151.785156 256.675781 155.488281 250.5 159.359375 246.996094 C 128.171875 243.488281 95.53125 231.425781 95.53125 177.992188 C 95.53125 162.425781 100.863281 149.941406 109.980469 139.984375 C 108.578125 136.476562 103.664062 121.890625 111.378906 102.957031 C 111.378906 102.957031 123.167969 99.164062 149.957031 117.265625 C 155.671875 115.726562 161.464844 114.566406 167.335938 113.792969 C 173.203125 113.015625 179.097656 112.628906 185.019531 112.628906 C 190.9375 112.628906 196.832031 113.015625 202.699219 113.792969 C 208.570312 114.566406 214.363281 115.726562 220.078125 117.265625 C 246.890625 99.164062 258.65625 102.957031 258.65625 102.957031 C 266.359375 121.890625 261.457031 136.476562 260.054688 139.984375 C 269.171875 149.914062 274.503906 162.425781 274.503906 177.992188 C 274.503906 231.5625 241.675781 243.351562 210.40625 246.855469 C 215.453125 251.203125 220.078125 259.761719 220.078125 272.800781 L 220.078125 311.238281 C 220.078125 315.023438 222.324219 319.511719 229.480469 318.25 C 231.515625 317.566406 233.53125 316.839844 235.53125 316.066406 C 237.53125 315.292969 239.511719 314.472656 241.476562 313.609375 C 243.4375 312.746094 245.378906 311.835938 247.300781 310.882812 C 249.21875 309.929688 251.117188 308.933594 252.992188 307.890625 C 254.867188 306.851562 256.71875 305.769531 258.542969 304.644531 C 260.371094 303.519531 262.167969 302.351562 263.941406 301.144531 C 265.710938 299.9375 267.457031 298.6875 269.171875 297.402344 C 270.882812 296.113281 272.570312 294.789062 274.222656 293.421875 C 275.878906 292.058594 277.5 290.65625 279.089844 289.21875 C 280.679688 287.777344 282.234375 286.304688 283.757812 284.792969 C 285.277344 283.285156 286.765625 281.738281 288.21875 280.160156 C 289.667969 278.582031 291.082031 276.972656 292.460938 275.328125 C 293.839844 273.683594 295.179688 272.011719 296.480469 270.308594 C 297.78125 268.601562 299.042969 266.867188 300.261719 265.105469 C 301.484375 263.34375 302.664062 261.554688 303.804688 259.738281 C 304.945312 257.921875 306.042969 256.078125 307.097656 254.214844 C 308.152344 252.347656 309.164062 250.457031 310.132812 248.542969 C 311.101562 246.628906 312.023438 244.695312 312.90625 242.742188 C 313.785156 240.785156 314.621094 238.8125 315.410156 236.816406 C 316.199219 234.824219 316.941406 232.8125 317.640625 230.785156 C 318.335938 228.757812 318.988281 226.714844 319.589844 224.65625 C 320.195312 222.597656 320.75 220.527344 321.257812 218.445312 C 321.769531 216.363281 322.230469 214.269531 322.640625 212.164062 C 323.054688 210.0625 323.417969 207.949219 323.734375 205.828125 C 324.050781 203.707031 324.320312 201.578125 324.539062 199.445312 C 324.757812 197.3125 324.925781 195.175781 325.046875 193.035156 C 325.167969 190.894531 325.238281 188.75 325.261719 186.609375 C 325.285156 184.464844 325.257812 182.320312 325.183594 180.175781 C 325.105469 178.035156 324.980469 175.894531 324.808594 173.757812 C 324.632812 171.621094 324.410156 169.488281 324.140625 167.359375 C 323.871094 165.234375 323.550781 163.113281 323.179688 161 C 322.8125 158.886719 322.394531 156.785156 321.929688 154.691406 C 321.464844 152.597656 320.953125 150.515625 320.394531 148.449219 C 319.832031 146.378906 319.226562 144.320312 318.570312 142.28125 C 317.917969 140.238281 317.214844 138.210938 316.46875 136.203125 C 315.722656 134.191406 314.929688 132.199219 314.089844 130.226562 C 313.25 128.253906 312.367188 126.300781 311.4375 124.367188 C 310.511719 122.433594 309.539062 120.523438 308.523438 118.632812 C 307.507812 116.746094 306.449219 114.882812 305.347656 113.042969 C 304.246094 111.203125 303.105469 109.386719 301.921875 107.601562 C 300.738281 105.8125 299.511719 104.050781 298.246094 102.320312 C 296.984375 100.589844 295.679688 98.886719 294.335938 97.214844 C 292.992188 95.542969 291.613281 93.902344 290.195312 92.296875 C 288.777344 90.6875 287.324219 89.109375 285.832031 87.570312 C 284.34375 86.027344 282.820312 84.519531 281.257812 83.046875 C 279.699219 81.574219 278.109375 80.140625 276.484375 78.742188 C 274.859375 77.34375 273.203125 75.980469 271.515625 74.65625 C 269.828125 73.332031 268.109375 72.050781 266.363281 70.804688 C 264.617188 69.5625 262.84375 68.355469 261.042969 67.195312 C 259.242188 66.03125 257.414062 64.910156 255.5625 63.828125 C 253.710938 62.75 251.832031 61.710938 249.933594 60.71875 C 248.035156 59.726562 246.113281 58.777344 244.167969 57.871094 C 242.222656 56.964844 240.261719 56.105469 238.277344 55.289062 C 236.292969 54.472656 234.292969 53.703125 232.273438 52.980469 C 230.257812 52.253906 228.222656 51.578125 226.171875 50.945312 C 224.125 50.316406 222.0625 49.730469 219.984375 49.195312 C 217.910156 48.660156 215.820312 48.171875 213.722656 47.730469 C 211.625 47.289062 209.515625 46.898438 207.398438 46.554688 C 205.285156 46.210938 203.160156 45.914062 201.03125 45.667969 C 198.898438 45.421875 196.765625 45.222656 194.625 45.074219 C 192.488281 44.925781 190.347656 44.824219 188.203125 44.773438 C 186.058594 44.722656 183.914062 44.722656 181.769531 44.769531 C 179.628906 44.816406 177.484375 44.914062 175.347656 45.058594 C 173.207031 45.203125 171.070312 45.398438 168.941406 45.640625 Z M 168.941406 45.640625 " fill-opacity="1" fill-rule="nonzero"/></svg>