<svg xmlns="http://www.w3.org/2000/svg" xmlns:xlink="http://www.w3.org/1999/xlink" width="500" zoomAndPan="magnify" viewBox="0 0 375 374.999991" height="500" preserveAspectRatio="xMidYMid meet" version="1.0"><defs><clipPath id="d23180ca7c"><path d="M 168 37.375 L 337.496094 37.375 L 337.496094 123 L 168 123 Z M 168 37.375 " clip-rule="nonzero"/></clipPath><clipPath id="059750b989"><path d="M 37.496094 74 L 272 74 L 272 182.125 L 37.496094 182.125 Z M 37.496094 74 " clip-rule="nonzero"/></clipPath></defs><rect x="-37.5" width="450" fill="#ffffff" y="-37.499999" height="449.999989" fill-opacity="1"/><rect x="-37.5" width="450" fill="#ffffff" y="-37.499999" height="449.999989" fill-opacity="1"/><g clip-path="url(#d23180ca7c)"><path fill="#c29473" d="M 168.410156 38.113281 L 336.894531 38.113281 L 336.894531 122.152344 C 337.089844 122.152344 337.304688 122.152344 337.496094 122.152344 L 337.496094 37.511719 L 168.519531 37.511719 C 168.496094 37.703125 168.453125 37.898438 168.410156 38.113281 Z M 168.410156 38.113281 " fill-opacity="1" fill-rule="nonzero"/></g><g clip-path="url(#059750b989)"><path fill="#c29473" d="M 38.097656 181.515625 L 38.097656 74.757812 C 37.90625 74.757812 37.691406 74.757812 37.496094 74.757812 L 37.496094 182.117188 L 271.492188 182.117188 C 271.492188 181.921875 271.46875 181.707031 271.46875 181.515625 Z M 38.097656 181.515625 " fill-opacity="1" fill-rule="nonzero"/></g></svg>