<svg xmlns="http://www.w3.org/2000/svg" xmlns:xlink="http://www.w3.org/1999/xlink" width="500" zoomAndPan="magnify" viewBox="0 0 375 374.999991" height="500" preserveAspectRatio="xMidYMid meet" version="1.0"><defs><clipPath id="f211abcaec"><path d="M 37.5 37.5 L 207 37.5 L 207 337.5 L 37.5 337.5 Z M 37.5 37.5 " clip-rule="nonzero"/></clipPath><clipPath id="aee3783fe6"><path d="M 187 112 L 234.75 112 L 234.75 160 L 187 160 Z M 187 112 " clip-rule="nonzero"/></clipPath></defs><rect x="-37.5" width="450" fill="#ffffff" y="-37.499999" height="449.999989" fill-opacity="1"/><rect x="-37.5" width="450" fill="#ffffff" y="-37.499999" height="449.999989" fill-opacity="1"/><path fill="#c29473" d="M 103.125 318.75 L 140.625 318.75 C 143.214844 318.75 145.3125 316.652344 145.3125 314.0625 C 145.3125 311.472656 143.214844 309.375 140.625 309.375 L 103.125 309.375 C 100.535156 309.375 98.4375 311.472656 98.4375 314.0625 C 98.4375 316.652344 100.535156 318.75 103.125 318.75 Z M 103.125 318.75 " fill-opacity="1" fill-rule="nonzero"/><path fill="#c29473" d="M 107.8125 60.9375 C 107.8125 61.246094 107.78125 61.550781 107.722656 61.851562 C 107.664062 62.152344 107.574219 62.445312 107.457031 62.730469 C 107.335938 63.015625 107.195312 63.285156 107.023438 63.542969 C 106.851562 63.796875 106.65625 64.035156 106.441406 64.253906 C 106.222656 64.46875 105.984375 64.664062 105.730469 64.835938 C 105.472656 65.007812 105.203125 65.152344 104.917969 65.269531 C 104.632812 65.386719 104.339844 65.476562 104.039062 65.535156 C 103.738281 65.59375 103.433594 65.625 103.125 65.625 C 102.816406 65.625 102.511719 65.59375 102.210938 65.535156 C 101.910156 65.476562 101.617188 65.386719 101.332031 65.269531 C 101.046875 65.152344 100.777344 65.007812 100.519531 64.835938 C 100.265625 64.664062 100.027344 64.46875 99.808594 64.253906 C 99.59375 64.035156 99.398438 63.796875 99.226562 63.542969 C 99.054688 63.285156 98.910156 63.015625 98.792969 62.730469 C 98.675781 62.445312 98.585938 62.152344 98.527344 61.851562 C 98.46875 61.550781 98.4375 61.246094 98.4375 60.9375 C 98.4375 60.628906 98.46875 60.324219 98.527344 60.023438 C 98.585938 59.722656 98.675781 59.429688 98.792969 59.144531 C 98.910156 58.859375 99.054688 58.589844 99.226562 58.332031 C 99.398438 58.078125 99.59375 57.839844 99.808594 57.621094 C 100.027344 57.40625 100.265625 57.210938 100.519531 57.039062 C 100.777344 56.867188 101.046875 56.722656 101.332031 56.605469 C 101.617188 56.488281 101.910156 56.398438 102.210938 56.339844 C 102.511719 56.28125 102.816406 56.25 103.125 56.25 C 103.433594 56.25 103.738281 56.28125 104.039062 56.339844 C 104.339844 56.398438 104.632812 56.488281 104.917969 56.605469 C 105.203125 56.722656 105.472656 56.867188 105.730469 57.039062 C 105.984375 57.210938 106.222656 57.40625 106.441406 57.621094 C 106.65625 57.839844 106.851562 58.078125 107.023438 58.332031 C 107.195312 58.589844 107.335938 58.859375 107.457031 59.144531 C 107.574219 59.429688 107.664062 59.722656 107.722656 60.023438 C 107.78125 60.324219 107.8125 60.628906 107.8125 60.9375 Z M 107.8125 60.9375 " fill-opacity="1" fill-rule="nonzero"/><path fill="#c29473" d="M 126.5625 60.9375 C 126.5625 61.246094 126.53125 61.550781 126.472656 61.851562 C 126.414062 62.152344 126.324219 62.445312 126.207031 62.730469 C 126.085938 63.015625 125.945312 63.285156 125.773438 63.542969 C 125.601562 63.796875 125.40625 64.035156 125.191406 64.253906 C 124.972656 64.46875 124.734375 64.664062 124.480469 64.835938 C 124.222656 65.007812 123.953125 65.152344 123.667969 65.269531 C 123.382812 65.386719 123.089844 65.476562 122.789062 65.535156 C 122.488281 65.59375 122.183594 65.625 121.875 65.625 C 121.566406 65.625 121.261719 65.59375 120.960938 65.535156 C 120.660156 65.476562 120.367188 65.386719 120.082031 65.269531 C 119.796875 65.152344 119.527344 65.007812 119.269531 64.835938 C 119.015625 64.664062 118.777344 64.46875 118.558594 64.253906 C 118.34375 64.035156 118.148438 63.796875 117.976562 63.542969 C 117.804688 63.285156 117.660156 63.015625 117.542969 62.730469 C 117.425781 62.445312 117.335938 62.152344 117.277344 61.851562 C 117.21875 61.550781 117.1875 61.246094 117.1875 60.9375 C 117.1875 60.628906 117.21875 60.324219 117.277344 60.023438 C 117.335938 59.722656 117.425781 59.429688 117.542969 59.144531 C 117.660156 58.859375 117.804688 58.589844 117.976562 58.332031 C 118.148438 58.078125 118.34375 57.839844 118.558594 57.621094 C 118.777344 57.40625 119.015625 57.210938 119.269531 57.039062 C 119.527344 56.867188 119.796875 56.722656 120.082031 56.605469 C 120.367188 56.488281 120.660156 56.398438 120.960938 56.339844 C 121.261719 56.28125 121.566406 56.25 121.875 56.25 C 122.183594 56.25 122.488281 56.28125 122.789062 56.339844 C 123.089844 56.398438 123.382812 56.488281 123.667969 56.605469 C 123.953125 56.722656 124.222656 56.867188 124.480469 57.039062 C 124.734375 57.210938 124.972656 57.40625 125.191406 57.621094 C 125.40625 57.839844 125.601562 58.078125 125.773438 58.332031 C 125.945312 58.589844 126.085938 58.859375 126.207031 59.144531 C 126.324219 59.429688 126.414062 59.722656 126.472656 60.023438 C 126.53125 60.324219 126.5625 60.628906 126.5625 60.9375 Z M 126.5625 60.9375 " fill-opacity="1" fill-rule="nonzero"/><path fill="#c29473" d="M 145.3125 60.9375 C 145.3125 61.246094 145.28125 61.550781 145.222656 61.851562 C 145.164062 62.152344 145.074219 62.445312 144.957031 62.730469 C 144.835938 63.015625 144.695312 63.285156 144.523438 63.542969 C 144.351562 63.796875 144.15625 64.035156 143.941406 64.253906 C 143.722656 64.46875 143.484375 64.664062 143.230469 64.835938 C 142.972656 65.007812 142.703125 65.152344 142.417969 65.269531 C 142.132812 65.386719 141.839844 65.476562 141.539062 65.535156 C 141.238281 65.59375 140.933594 65.625 140.625 65.625 C 140.316406 65.625 140.011719 65.59375 139.710938 65.535156 C 139.410156 65.476562 139.117188 65.386719 138.832031 65.269531 C 138.546875 65.152344 138.277344 65.007812 138.019531 64.835938 C 137.765625 64.664062 137.527344 64.46875 137.308594 64.253906 C 137.09375 64.035156 136.898438 63.796875 136.726562 63.542969 C 136.554688 63.285156 136.410156 63.015625 136.292969 62.730469 C 136.175781 62.445312 136.085938 62.152344 136.027344 61.851562 C 135.96875 61.550781 135.9375 61.246094 135.9375 60.9375 C 135.9375 60.628906 135.96875 60.324219 136.027344 60.023438 C 136.085938 59.722656 136.175781 59.429688 136.292969 59.144531 C 136.410156 58.859375 136.554688 58.589844 136.726562 58.332031 C 136.898438 58.078125 137.09375 57.839844 137.308594 57.621094 C 137.527344 57.40625 137.765625 57.210938 138.019531 57.039062 C 138.277344 56.867188 138.546875 56.722656 138.832031 56.605469 C 139.117188 56.488281 139.410156 56.398438 139.710938 56.339844 C 140.011719 56.28125 140.316406 56.25 140.625 56.25 C 140.933594 56.25 141.238281 56.28125 141.539062 56.339844 C 141.839844 56.398438 142.132812 56.488281 142.417969 56.605469 C 142.703125 56.722656 142.972656 56.867188 143.230469 57.039062 C 143.484375 57.210938 143.722656 57.40625 143.941406 57.621094 C 144.15625 57.839844 144.351562 58.078125 144.523438 58.332031 C 144.695312 58.589844 144.835938 58.859375 144.957031 59.144531 C 145.074219 59.429688 145.164062 59.722656 145.222656 60.023438 C 145.28125 60.324219 145.3125 60.628906 145.3125 60.9375 Z M 145.3125 60.9375 " fill-opacity="1" fill-rule="nonzero"/><path fill="#c29473" d="M 112.5 262.5 C 112.5 272.855469 120.894531 281.25 131.25 281.25 L 206.25 281.25 C 216.605469 281.25 225 272.855469 225 262.5 L 225 187.5 C 225 177.144531 216.605469 168.75 206.25 168.75 L 131.25 168.75 C 120.894531 168.75 112.5 177.144531 112.5 187.5 Z M 121.875 187.5 C 121.875 182.332031 126.078125 178.125 131.25 178.125 L 206.25 178.125 C 211.421875 178.125 215.625 182.332031 215.625 187.5 L 215.625 262.5 C 215.625 267.671875 211.421875 271.875 206.25 271.875 L 131.25 271.875 C 126.078125 271.875 121.875 267.671875 121.875 262.5 Z M 121.875 187.5 " fill-opacity="1" fill-rule="nonzero"/><path fill="#c29473" d="M 159.703125 159.375 C 169.875 159.375 178.125 151.128906 178.125 140.953125 L 178.125 112.171875 C 178.125 101.996094 169.875 93.75 159.703125 93.75 L 130.921875 93.75 C 120.75 93.75 112.5 101.996094 112.5 112.171875 L 112.5 140.953125 C 112.5 151.128906 120.75 159.375 130.921875 159.375 Z M 121.875 140.953125 L 121.875 112.171875 C 121.875 107.183594 125.933594 103.125 130.921875 103.125 L 159.703125 103.125 C 164.691406 103.125 168.75 107.183594 168.75 112.171875 L 168.75 140.953125 C 168.75 145.941406 164.691406 150 159.703125 150 L 130.921875 150 C 125.933594 150 121.875 145.941406 121.875 140.953125 Z M 121.875 140.953125 " fill-opacity="1" fill-rule="nonzero"/><g clip-path="url(#f211abcaec)"><path fill="#c29473" d="M 56.085938 337.5 L 187.664062 337.5 C 197.929688 337.5 206.25 329.105469 206.25 318.75 L 206.25 290.625 L 46.875 290.625 L 46.875 84.375 L 196.875 84.375 L 196.875 103.46875 C 198.105469 103.257812 206.25 103.125 206.25 103.125 L 206.25 56.25 C 206.25 45.894531 197.929688 37.5 187.664062 37.5 L 56.085938 37.5 C 45.820312 37.5 37.5 45.894531 37.5 56.25 L 37.5 318.75 C 37.5 329.105469 45.820312 337.5 56.085938 337.5 Z M 46.875 56.25 C 46.875 51.082031 51.007812 46.875 56.085938 46.875 L 187.664062 46.875 C 192.742188 46.875 196.875 51.082031 196.875 56.25 L 196.875 75 L 46.875 75 Z M 46.875 300 L 196.875 300 L 196.875 318.75 C 196.875 323.921875 192.742188 328.125 187.664062 328.125 L 56.085938 328.125 C 51.007812 328.125 46.875 323.921875 46.875 318.75 Z M 46.875 300 " fill-opacity="1" fill-rule="nonzero"/></g><g clip-path="url(#aee3783fe6)"><path fill="#c29473" d="M 187.5 125.660156 L 187.5 146.214844 C 187.5 153.484375 193.390625 159.375 200.65625 159.375 L 221.21875 159.375 C 228.484375 159.375 234.375 153.484375 234.375 146.214844 L 234.375 125.660156 C 234.375 118.390625 228.484375 112.5 221.21875 112.5 L 200.65625 112.5 C 193.390625 112.5 187.5 118.390625 187.5 125.660156 Z M 225 125.660156 L 225 146.214844 C 225 148.304688 223.304688 150 221.21875 150 L 200.65625 150 C 198.570312 150 196.875 148.304688 196.875 146.214844 L 196.875 125.660156 C 196.875 123.570312 198.570312 121.875 200.65625 121.875 L 221.21875 121.875 C 223.304688 121.875 225 123.570312 225 125.660156 Z M 225 125.660156 " fill-opacity="1" fill-rule="nonzero"/></g><path fill="#c29473" d="M 69.40625 168.75 C 62.140625 168.75 56.25 174.640625 56.25 181.910156 L 56.25 202.464844 C 56.25 209.734375 62.140625 215.625 69.40625 215.625 L 89.96875 215.625 C 97.234375 215.625 103.125 209.734375 103.125 202.464844 L 103.125 181.910156 C 103.125 174.640625 97.234375 168.75 89.96875 168.75 Z M 93.75 181.910156 L 93.75 202.464844 C 93.75 204.550781 92.054688 206.25 89.96875 206.25 L 69.40625 206.25 C 67.320312 206.25 65.625 204.550781 65.625 202.464844 L 65.625 181.910156 C 65.625 179.820312 67.320312 178.125 69.40625 178.125 L 89.96875 178.125 C 92.054688 178.125 93.75 179.820312 93.75 181.910156 Z M 93.75 181.910156 " fill-opacity="1" fill-rule="nonzero"/></svg>