<svg xmlns="http://www.w3.org/2000/svg" xmlns:xlink="http://www.w3.org/1999/xlink" width="500" zoomAndPan="magnify" viewBox="0 0 375 374.999991" height="500" preserveAspectRatio="xMidYMid meet" version="1.0"><defs><clipPath id="fd880acedd"><path d="M 37.5 37.5 L 337.5 37.5 L 337.5 337.5 L 37.5 337.5 Z M 37.5 37.5 " clip-rule="nonzero"/></clipPath></defs><rect x="-37.5" width="450" fill="#ffffff" y="-37.499999" height="449.999989" fill-opacity="1"/><rect x="-37.5" width="450" fill="#ffffff" y="-37.499999" height="449.999989" fill-opacity="1"/><g clip-path="url(#fd880acedd)"><path fill="#c29473" d="M 187.5 37.5 C 104.777344 37.5 37.5 104.777344 37.5 187.5 C 37.5 270.222656 104.777344 337.5 187.5 337.5 C 270.222656 337.5 337.5 270.222656 337.5 187.5 C 337.5 104.777344 270.222656 37.5 187.5 37.5 Z M 187.5 326.976562 C 110.484375 326.976562 48.023438 264.515625 48.023438 187.5 C 48.023438 110.484375 110.484375 48.023438 187.5 48.023438 C 264.515625 48.023438 326.976562 110.484375 326.976562 187.5 C 326.976562 264.515625 264.515625 326.976562 187.5 326.976562 Z M 187.5 326.976562 " fill-opacity="1" fill-rule="nonzero"/></g><path fill="#c29473" d="M 251.082031 241.605469 C 260.410156 230.410156 253.542969 223.878906 247.351562 219.179688 C 241.15625 214.476562 226.566406 208.46875 222.089844 213.84375 C 217.613281 219.214844 210.449219 225.933594 204.925781 224.476562 C 195.597656 222.015625 183.695312 209.441406 174.625 200.375 C 165.558594 191.304688 152.984375 179.402344 150.523438 170.074219 C 149.066406 164.550781 155.296875 157.796875 161.15625 152.910156 C 167.015625 148.023438 160.859375 134.367188 155.820312 127.648438 C 150.785156 120.933594 144.589844 114.589844 133.394531 123.917969 C 122.203125 133.246094 108.058594 158.058594 134.140625 195.894531 C 140.820312 205.597656 146.566406 211.195312 155.1875 219.8125 C 163.804688 228.433594 169.402344 234.179688 179.105469 240.859375 C 216.941406 266.941406 241.753906 252.796875 251.082031 241.605469 Z M 251.082031 241.605469 " fill-opacity="1" fill-rule="nonzero"/><path fill="#c29473" d="M 219.738281 193.359375 C 219.414062 193.359375 219.089844 193.332031 218.773438 193.273438 C 218.453125 193.210938 218.140625 193.125 217.839844 193.007812 C 217.535156 192.890625 217.246094 192.746094 216.96875 192.574219 C 216.691406 192.402344 216.433594 192.210938 216.195312 191.988281 C 215.953125 191.769531 215.738281 191.53125 215.542969 191.269531 C 215.347656 191.011719 215.175781 190.734375 215.035156 190.445312 C 214.890625 190.152344 214.773438 189.851562 214.6875 189.539062 C 214.601562 189.222656 214.542969 188.90625 214.515625 188.582031 C 214.441406 187.769531 214.332031 186.960938 214.1875 186.15625 C 214.046875 185.351562 213.867188 184.554688 213.652344 183.769531 C 213.441406 182.980469 213.195312 182.203125 212.914062 181.433594 C 212.632812 180.667969 212.320312 179.914062 211.972656 179.175781 C 211.625 178.433594 211.25 177.710938 210.839844 177.003906 C 210.429688 176.296875 209.992188 175.609375 209.523438 174.941406 C 209.054688 174.273438 208.558594 173.625 208.03125 173 C 207.507812 172.375 206.957031 171.773438 206.378906 171.195312 C 205.800781 170.621094 205.199219 170.066406 204.574219 169.542969 C 203.949219 169.015625 203.300781 168.519531 202.632812 168.050781 C 201.964844 167.582031 201.277344 167.144531 200.570312 166.734375 C 199.863281 166.324219 199.140625 165.949219 198.398438 165.601562 C 197.660156 165.253906 196.90625 164.941406 196.140625 164.660156 C 195.371094 164.378906 194.59375 164.132812 193.808594 163.921875 C 193.019531 163.707031 192.222656 163.53125 191.417969 163.386719 C 190.613281 163.242188 189.804688 163.132812 188.992188 163.058594 C 188.648438 163.027344 188.308594 162.964844 187.980469 162.867188 C 187.648438 162.769531 187.328125 162.640625 187.023438 162.480469 C 186.714844 162.320312 186.429688 162.132812 186.160156 161.917969 C 185.890625 161.699219 185.644531 161.460938 185.421875 161.195312 C 185.199219 160.929688 185.007812 160.644531 184.839844 160.34375 C 184.675781 160.039062 184.539062 159.722656 184.4375 159.390625 C 184.332031 159.0625 184.261719 158.726562 184.226562 158.382812 C 184.1875 158.039062 184.1875 157.695312 184.214844 157.351562 C 184.246094 157.007812 184.3125 156.667969 184.40625 156.335938 C 184.503906 156.003906 184.632812 155.6875 184.792969 155.378906 C 184.953125 155.074219 185.140625 154.785156 185.359375 154.515625 C 185.574219 154.246094 185.816406 154.003906 186.082031 153.78125 C 186.347656 153.558594 186.632812 153.363281 186.933594 153.199219 C 187.238281 153.035156 187.554688 152.898438 187.882812 152.796875 C 188.214844 152.691406 188.550781 152.621094 188.894531 152.585938 C 189.238281 152.546875 189.582031 152.542969 189.925781 152.574219 C 191.042969 152.675781 192.152344 152.828125 193.253906 153.023438 C 194.359375 153.222656 195.453125 153.46875 196.535156 153.761719 C 197.617188 154.054688 198.683594 154.394531 199.738281 154.78125 C 200.789062 155.167969 201.824219 155.597656 202.839844 156.074219 C 203.855469 156.550781 204.847656 157.066406 205.816406 157.628906 C 206.789062 158.191406 207.734375 158.792969 208.652344 159.4375 C 209.570312 160.082031 210.457031 160.761719 211.316406 161.484375 C 212.175781 162.203125 213 162.960938 213.796875 163.753906 C 214.589844 164.546875 215.347656 165.371094 216.066406 166.230469 C 216.789062 167.089844 217.472656 167.976562 218.117188 168.894531 C 218.761719 169.8125 219.367188 170.753906 219.929688 171.722656 C 220.492188 172.695312 221.011719 173.6875 221.488281 174.703125 C 221.964844 175.714844 222.394531 176.75 222.78125 177.800781 C 223.167969 178.855469 223.511719 179.921875 223.804688 181.003906 C 224.097656 182.085938 224.347656 183.179688 224.546875 184.28125 C 224.746094 185.386719 224.898438 186.496094 225 187.613281 C 225.03125 187.957031 225.027344 188.300781 224.992188 188.648438 C 224.953125 188.992188 224.882812 189.328125 224.78125 189.660156 C 224.679688 189.992188 224.542969 190.308594 224.378906 190.613281 C 224.210938 190.917969 224.019531 191.203125 223.796875 191.46875 C 223.574219 191.738281 223.332031 191.980469 223.0625 192.199219 C 222.792969 192.417969 222.503906 192.605469 222.199219 192.769531 C 221.890625 192.929688 221.570312 193.0625 221.238281 193.160156 C 220.90625 193.257812 220.570312 193.324219 220.222656 193.359375 Z M 219.738281 193.359375 " fill-opacity="1" fill-rule="nonzero"/><path fill="#c29473" d="M 244.214844 193.65625 C 243.878906 193.65625 243.546875 193.625 243.214844 193.5625 C 242.886719 193.5 242.566406 193.402344 242.253906 193.277344 C 241.941406 193.152344 241.644531 193 241.363281 192.816406 C 241.078125 192.636719 240.816406 192.429688 240.574219 192.195312 C 240.332031 191.964844 240.113281 191.710938 239.917969 191.433594 C 239.722656 191.160156 239.558594 190.871094 239.417969 190.5625 C 239.28125 190.257812 239.171875 189.941406 239.09375 189.613281 C 239.015625 189.285156 238.96875 188.957031 238.957031 188.621094 C 238.878906 187.003906 238.726562 185.394531 238.5 183.796875 C 238.273438 182.195312 237.976562 180.605469 237.605469 179.035156 C 237.230469 177.460938 236.789062 175.90625 236.273438 174.375 C 235.757812 172.84375 235.171875 171.335938 234.519531 169.859375 C 233.863281 168.378906 233.144531 166.933594 232.355469 165.523438 C 231.566406 164.109375 230.714844 162.738281 229.800781 161.402344 C 228.886719 160.070312 227.914062 158.78125 226.882812 157.539062 C 225.847656 156.292969 224.761719 155.101562 223.617188 153.957031 C 222.472656 152.816406 221.28125 151.726562 220.035156 150.691406 C 218.792969 149.660156 217.503906 148.6875 216.171875 147.773438 C 214.835938 146.859375 213.464844 146.007812 212.050781 145.21875 C 210.640625 144.429688 209.195312 143.710938 207.714844 143.054688 C 206.238281 142.402344 204.730469 141.816406 203.199219 141.300781 C 201.667969 140.785156 200.113281 140.34375 198.539062 139.96875 C 196.96875 139.597656 195.378906 139.300781 193.777344 139.074219 C 192.179688 138.847656 190.570312 138.695312 188.957031 138.621094 C 188.609375 138.601562 188.269531 138.554688 187.933594 138.472656 C 187.597656 138.386719 187.273438 138.273438 186.960938 138.125 C 186.648438 137.980469 186.351562 137.804688 186.074219 137.597656 C 185.792969 137.394531 185.539062 137.164062 185.304688 136.90625 C 185.074219 136.652344 184.867188 136.375 184.6875 136.078125 C 184.507812 135.785156 184.363281 135.472656 184.246094 135.148438 C 184.125 134.820312 184.042969 134.488281 183.992188 134.148438 C 183.9375 133.804688 183.921875 133.460938 183.9375 133.117188 C 183.953125 132.769531 184 132.429688 184.085938 132.09375 C 184.167969 131.757812 184.28125 131.433594 184.429688 131.121094 C 184.578125 130.808594 184.753906 130.511719 184.957031 130.234375 C 185.164062 129.957031 185.394531 129.699219 185.648438 129.464844 C 185.90625 129.234375 186.179688 129.027344 186.476562 128.847656 C 186.773438 128.671875 187.082031 128.523438 187.410156 128.40625 C 187.734375 128.289062 188.066406 128.203125 188.410156 128.152344 C 188.75 128.097656 189.09375 128.082031 189.441406 128.097656 C 191.378906 128.191406 193.308594 128.375 195.230469 128.644531 C 197.152344 128.917969 199.058594 129.277344 200.949219 129.726562 C 202.835938 130.171875 204.699219 130.707031 206.539062 131.324219 C 208.378906 131.945312 210.1875 132.648438 211.960938 133.433594 C 213.738281 134.21875 215.472656 135.085938 217.167969 136.03125 C 218.863281 136.976562 220.507812 138 222.109375 139.097656 C 223.710938 140.195312 225.257812 141.367188 226.75 142.605469 C 228.242188 143.847656 229.675781 145.152344 231.050781 146.523438 C 232.421875 147.898438 233.726562 149.332031 234.96875 150.824219 C 236.210938 152.316406 237.378906 153.863281 238.476562 155.464844 C 239.574219 157.066406 240.597656 158.714844 241.542969 160.40625 C 242.488281 162.101562 243.355469 163.839844 244.140625 165.613281 C 244.925781 167.386719 245.628906 169.195312 246.25 171.035156 C 246.867188 172.875 247.402344 174.738281 247.847656 176.628906 C 248.296875 178.515625 248.65625 180.421875 248.929688 182.34375 C 249.199219 184.265625 249.382812 186.195312 249.476562 188.132812 C 249.492188 188.480469 249.472656 188.824219 249.421875 189.164062 C 249.367188 189.507812 249.28125 189.839844 249.164062 190.164062 C 249.046875 190.492188 248.894531 190.800781 248.714844 191.097656 C 248.539062 191.390625 248.332031 191.667969 248.097656 191.921875 C 247.863281 192.175781 247.605469 192.40625 247.328125 192.609375 C 247.046875 192.8125 246.75 192.988281 246.4375 193.132812 C 246.125 193.28125 245.796875 193.394531 245.460938 193.476562 C 245.125 193.558594 244.785156 193.605469 244.441406 193.621094 Z M 244.214844 193.65625 " fill-opacity="1" fill-rule="nonzero"/></svg>