<svg xmlns="http://www.w3.org/2000/svg" xmlns:xlink="http://www.w3.org/1999/xlink" width="500" zoomAndPan="magnify" viewBox="0 0 375 374.999991" height="500" preserveAspectRatio="xMidYMid meet" version="1.0"><defs><clipPath id="6b9ec92a47"><path d="M 37.5 78.953125 L 337.5 78.953125 L 337.5 295.703125 L 37.5 295.703125 Z M 37.5 78.953125 " clip-rule="nonzero"/></clipPath></defs><rect x="-37.5" width="450" fill="#ffffff" y="-37.499999" height="449.999989" fill-opacity="1"/><rect x="-37.5" width="450" fill="#ffffff" y="-37.499999" height="449.999989" fill-opacity="1"/><g clip-path="url(#6b9ec92a47)"><path fill="#000000" d="M 311.550781 78.953125 L 63.449219 78.953125 C 49.183594 78.953125 37.605469 90.515625 37.605469 104.757812 L 37.605469 269.902344 C 37.605469 284.144531 49.183594 295.703125 63.449219 295.703125 L 311.550781 295.703125 C 325.816406 295.703125 337.394531 284.144531 337.394531 269.902344 L 337.394531 104.757812 C 337.394531 90.515625 325.816406 78.953125 311.550781 78.953125 Z M 240.582031 177.109375 L 325.300781 97.6875 C 326.386719 99.855469 327.058594 102.230469 327.058594 104.757812 L 327.058594 269.902344 C 327.058594 271.863281 326.644531 273.71875 325.972656 275.472656 Z M 311.550781 89.277344 C 313.773438 89.277344 315.894531 89.742188 317.753906 90.617188 L 187.5 212.71875 L 57.246094 90.617188 C 59.105469 89.742188 61.226562 89.277344 63.449219 89.277344 Z M 49.027344 275.472656 C 48.355469 273.71875 47.941406 271.863281 47.941406 269.902344 L 47.941406 104.757812 C 47.941406 102.230469 48.613281 99.855469 49.699219 97.738281 L 134.417969 177.164062 Z M 63.449219 285.382812 C 60.65625 285.382812 58.125 284.609375 55.851562 283.320312 L 141.960938 184.179688 L 183.933594 223.558594 C 184.914062 224.488281 186.207031 224.949219 187.449219 224.949219 C 188.6875 224.949219 189.980469 224.488281 190.964844 223.558594 L 232.933594 184.179688 L 319.148438 283.320312 C 316.875 284.609375 314.34375 285.382812 311.550781 285.382812 Z M 63.449219 285.382812 " fill-opacity="1" fill-rule="nonzero"/></g></svg>