<svg xmlns="http://www.w3.org/2000/svg" xmlns:xlink="http://www.w3.org/1999/xlink" width="500" zoomAndPan="magnify" viewBox="0 0 375 374.999991" height="500" preserveAspectRatio="xMidYMid meet" version="1.0"><defs><clipPath id="004fbf8378"><path d="M 37.5 37.5 L 337.5 37.5 L 337.5 337.5 L 37.5 337.5 Z M 37.5 37.5 " clip-rule="nonzero"/></clipPath></defs><rect x="-37.5" width="450" fill="#ffffff" y="-37.499999" height="449.999989" fill-opacity="1"/><rect x="-37.5" width="450" fill="#ffffff" y="-37.499999" height="449.999989" fill-opacity="1"/><path fill="#000000" d="M 201.90625 142.511719 L 201.90625 166.902344 L 232.613281 166.902344 L 228.316406 200.261719 L 201.90625 200.261719 L 201.90625 276.714844 L 168.417969 276.714844 L 168.417969 200.261719 L 139.734375 200.261719 L 139.734375 166.902344 L 168.417969 166.902344 L 168.417969 142.511719 C 168.417969 116.101562 189.773438 98.285156 216.1875 98.285156 C 227.8125 98.285156 235.140625 100.050781 235.140625 100.050781 L 235.140625 128.234375 L 216.1875 128.234375 C 208.351562 128.234375 201.90625 134.679688 201.90625 142.511719 Z M 201.90625 142.511719 " fill-opacity="1" fill-rule="nonzero"/><g clip-path="url(#004fbf8378)"><path fill="#000000" d="M 187.5 337.5 C 104.855469 337.5 37.5 270.273438 37.5 187.5 C 37.5 104.726562 104.855469 37.5 187.5 37.5 C 270.273438 37.5 337.5 104.855469 337.5 187.5 C 337.5 270.144531 270.273438 337.5 187.5 337.5 Z M 187.5 45.714844 C 109.277344 45.714844 45.714844 109.277344 45.714844 187.5 C 45.714844 265.722656 109.277344 329.285156 187.5 329.285156 C 265.722656 329.285156 329.285156 265.722656 329.285156 187.5 C 329.285156 109.277344 265.722656 45.714844 187.5 45.714844 Z M 187.5 45.714844 " fill-opacity="1" fill-rule="nonzero"/></g></svg>