<svg xmlns="http://www.w3.org/2000/svg" xmlns:xlink="http://www.w3.org/1999/xlink" width="500" zoomAndPan="magnify" viewBox="0 0 375 374.999991" height="500" preserveAspectRatio="xMidYMid meet" version="1.0"><defs><clipPath id="a12ad11bd4"><path d="M 37.5 37.5 L 244.5 37.5 L 244.5 337.5 L 37.5 337.5 Z M 37.5 37.5 " clip-rule="nonzero"/></clipPath></defs><rect x="-37.5" width="450" fill="#ffffff" y="-37.499999" height="449.999989" fill-opacity="1"/><rect x="-37.5" width="450" fill="#ffffff" y="-37.499999" height="449.999989" fill-opacity="1"/><g clip-path="url(#a12ad11bd4)"><path fill="#000000" d="M 94.5 37.484375 C 63.03125 37.484375 37.519531 62.996094 37.519531 94.464844 C 37.519531 113.667969 47.023438 130.65625 61.582031 140.976562 C 47.023438 151.300781 37.519531 168.285156 37.519531 187.492188 C 37.519531 206.695312 47.023438 223.679688 61.582031 234.003906 C 47.023438 244.328125 37.519531 261.3125 37.519531 280.515625 C 37.519531 311.984375 63.03125 337.496094 94.5 337.496094 C 125.96875 337.496094 151.480469 311.984375 151.480469 280.515625 L 151.480469 231.621094 C 161.300781 239.652344 173.851562 244.46875 187.527344 244.46875 C 218.996094 244.46875 244.503906 218.960938 244.503906 187.492188 C 244.503906 168.285156 235.003906 151.300781 220.445312 140.976562 C 235.003906 130.65625 244.503906 113.667969 244.503906 94.464844 C 244.503906 62.996094 218.996094 37.484375 187.527344 37.484375 Z M 130.546875 223.539062 L 94.5 223.539062 C 74.589844 223.539062 58.453125 207.398438 58.453125 187.492188 C 58.453125 167.582031 74.589844 151.441406 94.5 151.441406 L 130.546875 151.441406 Z M 94.5 130.511719 L 130.546875 130.511719 L 130.546875 58.417969 L 94.5 58.417969 C 74.589844 58.417969 58.453125 74.554688 58.453125 94.464844 C 58.453125 114.371094 74.589844 130.511719 94.5 130.511719 Z M 223.574219 94.464844 C 223.574219 114.359375 207.457031 130.492188 187.566406 130.511719 L 151.480469 130.511719 L 151.480469 58.417969 L 187.527344 58.417969 C 207.433594 58.417969 223.574219 74.554688 223.574219 94.464844 Z M 151.480469 187.445312 C 151.503906 167.574219 167.609375 151.464844 187.480469 151.441406 L 187.5625 151.441406 C 207.453125 151.460938 223.574219 167.59375 223.574219 187.492188 C 223.574219 207.398438 207.433594 223.539062 187.527344 223.539062 C 167.632812 223.539062 151.503906 207.421875 151.480469 187.535156 Z M 94.5 244.46875 C 74.589844 244.46875 58.453125 260.609375 58.453125 280.515625 C 58.453125 300.425781 74.589844 316.566406 94.5 316.566406 C 114.410156 316.566406 130.546875 300.425781 130.546875 280.515625 L 130.546875 244.46875 Z M 94.5 244.46875 " fill-opacity="1" fill-rule="evenodd"/></g></svg>