<svg xmlns="http://www.w3.org/2000/svg" xmlns:xlink="http://www.w3.org/1999/xlink" width="500" zoomAndPan="magnify" viewBox="0 0 375 374.999991" height="500" preserveAspectRatio="xMidYMid meet" version="1.0"><defs><clipPath id="734330eab7"><path d="M 37.5 37.5 L 337.5 37.5 L 337.5 337.5 L 37.5 337.5 Z M 37.5 37.5 " clip-rule="nonzero"/></clipPath></defs><rect x="-37.5" width="450" fill="#ffffff" y="-37.499999" height="449.999989" fill-opacity="1"/><rect x="-37.5" width="450" fill="#ffffff" y="-37.499999" height="449.999989" fill-opacity="1"/><path fill="#000000" d="M 57.5 57.5 L 67.5 57.5 L 67.5 67.5 L 57.5 67.5 Z M 57.5 57.5 " fill-opacity="1" fill-rule="nonzero"/><path fill="#000000" d="M 77.5 57.5 L 87.5 57.5 L 87.5 67.5 L 77.5 67.5 Z M 77.5 57.5 " fill-opacity="1" fill-rule="nonzero"/><path fill="#000000" d="M 97.5 57.5 L 107.5 57.5 L 107.5 67.5 L 97.5 67.5 Z M 97.5 57.5 " fill-opacity="1" fill-rule="nonzero"/><g clip-path="url(#734330eab7)"><path fill="#000000" d="M 322.5 37.5 L 52.5 37.5 C 44.25 37.5 37.5 44.25 37.5 52.5 L 37.5 322.5 C 37.5 330.75 44.25 337.5 52.5 337.5 L 322.5 337.5 C 330.75 337.5 337.5 330.75 337.5 322.5 L 337.5 52.5 C 337.5 44.25 330.75 37.5 322.5 37.5 Z M 327.5 57.5 L 117.5 57.5 L 117.5 67.5 L 327.5 67.5 L 327.5 322.5 C 327.5 325.25 325.25 327.5 322.5 327.5 L 52.5 327.5 C 49.75 327.5 47.5 325.25 47.5 322.5 L 47.5 52.5 C 47.5 49.75 49.75 47.5 52.5 47.5 L 322.5 47.5 C 325.25 47.5 327.5 49.75 327.5 52.5 Z M 327.5 57.5 " fill-opacity="1" fill-rule="nonzero"/></g><path fill="#000000" d="M 132.5 87.5 L 242.5 87.5 L 242.5 97.5 L 132.5 97.5 Z M 132.5 87.5 " fill-opacity="1" fill-rule="nonzero"/><path fill="#000000" d="M 67.5 132.5 L 67.5 162.5 C 67.5 165.25 69.75 167.5 72.5 167.5 L 230.4375 167.5 L 222 202.5 L 72.5 202.5 C 69.75 202.5 67.5 204.75 67.5 207.5 L 67.5 237.5 C 67.5 240.25 69.75 242.5 72.5 242.5 L 302.5 242.5 C 305.25 242.5 307.5 240.25 307.5 237.5 L 307.5 207.5 C 307.5 204.75 305.25 202.5 302.5 202.5 L 272.625 202.5 L 268.875 192.375 L 283 190.875 C 285.0625 190.625 286.75 189.1875 287.3125 187.1875 C 287.875 185.1875 287.125 183.0625 285.4375 181.875 L 265.875 167.5 L 302.5 167.5 C 305.25 167.5 307.5 165.25 307.5 162.5 L 307.5 132.5 C 307.5 129.75 305.25 127.5 302.5 127.5 L 72.5 127.5 C 69.75 127.5 67.5 129.75 67.5 132.5 Z M 261.4375 183.0625 C 259.875 183.25 258.5625 184.0625 257.75 185.375 C 256.9375 186.6875 256.75 188.3125 257.3125 189.75 L 269.375 222.625 L 260 226.0625 L 247.9375 193.1875 C 247.4375 191.75 246.25 190.625 244.75 190.125 C 244.25 189.9375 243.75 189.875 243.25 189.875 C 242.25 189.875 241.25 190.1875 240.4375 190.75 L 234.0625 195.0625 L 241.9375 162.375 L 269.125 182.25 Z M 261.4375 183.0625 " fill-opacity="1" fill-rule="nonzero"/><path fill="#000000" d="M 67.5 107.5 L 112.5 107.5 L 112.5 117.5 L 67.5 117.5 Z M 67.5 107.5 " fill-opacity="1" fill-rule="nonzero"/><path fill="#000000" d="M 67.5 182.5 L 137.5 182.5 L 137.5 192.5 L 67.5 192.5 Z M 67.5 182.5 " fill-opacity="1" fill-rule="nonzero"/><path fill="#000000" d="M 67.5 257.5 L 137.5 257.5 L 137.5 267.5 L 67.5 267.5 Z M 67.5 257.5 " fill-opacity="1" fill-rule="nonzero"/><path fill="#000000" d="M 302.5 277.5 L 72.5 277.5 C 69.75 277.5 67.5 279.75 67.5 282.5 L 67.5 312.5 C 67.5 315.25 69.75 317.5 72.5 317.5 L 302.5 317.5 C 305.25 317.5 307.5 315.25 307.5 312.5 L 307.5 282.5 C 307.5 279.75 305.25 277.5 302.5 277.5 Z M 302.5 277.5 " fill-opacity="1" fill-rule="nonzero"/></svg>