<svg xmlns="http://www.w3.org/2000/svg" xmlns:xlink="http://www.w3.org/1999/xlink" width="500" zoomAndPan="magnify" viewBox="0 0 375 374.999991" height="500" preserveAspectRatio="xMidYMid meet" version="1.0"><defs><clipPath id="74d80c89c2"><path d="M 37.5 37.5 L 337.5 37.5 L 337.5 337.5 L 37.5 337.5 Z M 37.5 37.5 " clip-rule="nonzero"/></clipPath></defs><rect x="-37.5" width="450" fill="#ffffff" y="-37.499999" height="449.999989" fill-opacity="1"/><rect x="-37.5" width="450" fill="#ffffff" y="-37.499999" height="449.999989" fill-opacity="1"/><path fill="#000000" d="M 191.046875 117.039062 L 206.390625 120.167969 L 177.109375 257.960938 L 161.769531 254.832031 L 191.046875 117.039062 M 246.921875 187.5 L 218.816406 159.390625 L 218.816406 137.238281 L 269.078125 187.5 L 218.816406 237.683594 L 218.816406 215.53125 L 246.921875 187.5 M 105.960938 187.5 L 156.222656 137.238281 L 156.222656 159.390625 L 128.078125 187.5 L 156.183594 215.53125 L 156.183594 237.683594 Z M 105.960938 187.5 " fill-opacity="1" fill-rule="nonzero"/><g clip-path="url(#74d80c89c2)"><path fill="#000000" d="M 187.5 337.5 C 104.792969 337.5 37.5 270.207031 37.5 187.5 C 37.5 104.792969 104.792969 37.5 187.5 37.5 C 270.207031 37.5 337.5 104.792969 337.5 187.5 C 337.5 270.207031 270.207031 337.5 187.5 337.5 Z M 187.5 55.960938 C 114.96875 55.960938 55.960938 114.96875 55.960938 187.5 C 55.960938 260.03125 114.96875 319.039062 187.5 319.039062 C 260.03125 319.039062 319.039062 260.03125 319.039062 187.5 C 319.039062 114.96875 260.03125 55.960938 187.5 55.960938 Z M 187.5 55.960938 " fill-opacity="1" fill-rule="nonzero"/></g></svg>