<svg xmlns="http://www.w3.org/2000/svg" xmlns:xlink="http://www.w3.org/1999/xlink" width="500" zoomAndPan="magnify" viewBox="0 0 375 374.999991" height="500" preserveAspectRatio="xMidYMid meet" version="1.0"><defs><clipPath id="5153fb9d8f"><path d="M 98.960938 37.5 L 275.828125 37.5 L 275.828125 298.644531 L 98.960938 298.644531 Z M 98.960938 37.5 " clip-rule="nonzero"/></clipPath><clipPath id="d71799a70d"><path d="M 111.171875 308.199219 L 264 308.199219 L 264 337.5 L 111.171875 337.5 Z M 111.171875 308.199219 " clip-rule="nonzero"/></clipPath></defs><rect x="-37.5" width="450" fill="#ffffff" y="-37.499999" height="449.999989" fill-opacity="1"/><rect x="-37.5" width="450" fill="#ffffff" y="-37.499999" height="449.999989" fill-opacity="1"/><path fill="#000000" d="M 187.507812 79.996094 C 167.394531 79.996094 151.035156 96.359375 151.035156 116.46875 C 151.035156 136.582031 167.394531 152.945312 187.507812 152.945312 C 207.621094 152.945312 223.980469 136.582031 223.980469 116.46875 C 223.980469 96.359375 207.621094 79.996094 187.507812 79.996094 Z M 187.507812 160.757812 C 163.085938 160.757812 143.21875 140.890625 143.21875 116.46875 C 143.21875 92.046875 163.085938 72.179688 187.507812 72.179688 C 211.929688 72.179688 231.796875 92.046875 231.796875 116.46875 C 231.796875 140.890625 211.929688 160.757812 187.507812 160.757812 " fill-opacity="1" fill-rule="nonzero"/><g clip-path="url(#5153fb9d8f)"><path fill="#000000" d="M 187.507812 45.5625 C 143.128906 45.5625 107.023438 81.667969 107.023438 126.046875 C 107.023438 193.433594 172.734375 270.585938 187.507812 287.074219 C 202.28125 270.585938 267.996094 193.433594 267.996094 126.046875 C 267.996094 81.667969 231.890625 45.5625 187.507812 45.5625 Z M 187.507812 298.160156 L 185.03125 296.230469 C 184.128906 295.527344 162.679688 272.476562 141.882812 240.96875 C 129.472656 222.164062 119.578125 203.84375 112.46875 186.523438 C 103.507812 164.683594 98.960938 144.335938 98.960938 126.046875 C 98.960938 102.398438 108.171875 80.160156 124.894531 63.4375 C 141.621094 46.710938 163.855469 37.503906 187.507812 37.503906 C 211.160156 37.503906 233.394531 46.710938 250.121094 63.4375 C 266.84375 80.160156 276.054688 102.398438 276.054688 126.046875 C 276.054688 144.335938 271.507812 164.683594 262.546875 186.523438 C 255.4375 203.84375 245.542969 222.164062 233.128906 240.96875 C 212.335938 272.476562 190.886719 295.527344 189.984375 296.230469 L 187.507812 298.160156 " fill-opacity="1" fill-rule="nonzero"/></g><g clip-path="url(#d71799a70d)"><path fill="#000000" d="M 240.96875 308.460938 C 246.175781 310.46875 249.152344 312.796875 249.152344 315.28125 C 249.152344 322.839844 221.554688 328.964844 187.507812 328.964844 C 153.460938 328.964844 125.863281 322.839844 125.863281 315.28125 C 125.863281 312.796875 128.84375 310.46875 134.046875 308.460938 C 119.9375 311.535156 111.179688 315.816406 111.179688 320.554688 C 111.179688 329.914062 145.351562 337.5 187.507812 337.5 C 229.664062 337.5 263.835938 329.914062 263.835938 320.554688 C 263.835938 315.816406 255.078125 311.535156 240.96875 308.460938 " fill-opacity="1" fill-rule="nonzero"/></g><path fill="#000000" d="M 214.347656 306.992188 C 216.960938 308 218.457031 309.167969 218.457031 310.414062 C 218.457031 314.210938 204.597656 317.285156 187.507812 317.285156 C 170.414062 317.285156 156.5625 314.210938 156.5625 310.414062 C 156.5625 309.167969 158.054688 308 160.671875 306.992188 C 153.585938 308.535156 149.1875 310.683594 149.1875 313.0625 C 149.1875 317.761719 166.34375 321.570312 187.507812 321.570312 C 208.671875 321.570312 225.828125 317.761719 225.828125 313.0625 C 225.828125 310.683594 221.429688 308.535156 214.347656 306.992188 " fill-opacity="1" fill-rule="nonzero"/></svg>