<svg xmlns="http://www.w3.org/2000/svg" xmlns:xlink="http://www.w3.org/1999/xlink" width="500" zoomAndPan="magnify" viewBox="0 0 375 374.999991" height="500" preserveAspectRatio="xMidYMid meet" version="1.0"><defs><clipPath id="3e9baa53eb"><path d="M 37.5 37.5 L 207 37.5 L 207 337.5 L 37.5 337.5 Z M 37.5 37.5 " clip-rule="nonzero"/></clipPath><clipPath id="0b8a5c16fa"><path d="M 187 112 L 234.75 112 L 234.75 160 L 187 160 Z M 187 112 " clip-rule="nonzero"/></clipPath></defs><rect x="-37.5" width="450" fill="#ffffff" y="-37.499999" height="449.999989" fill-opacity="1"/><rect x="-37.5" width="450" fill="#ffffff" y="-37.499999" height="449.999989" fill-opacity="1"/><path fill="#000000" d="M 103.25 318.75 L 140.820312 318.75 C 143.414062 318.75 145.519531 316.652344 145.519531 314.0625 C 145.519531 311.472656 143.414062 309.375 140.820312 309.375 L 103.25 309.375 C 100.65625 309.375 98.554688 311.472656 98.554688 314.0625 C 98.554688 316.652344 100.65625 318.75 103.25 318.75 Z M 103.25 318.75 " fill-opacity="1" fill-rule="nonzero"/><path fill="#000000" d="M 107.945312 60.9375 C 107.945312 61.246094 107.917969 61.550781 107.855469 61.851562 C 107.796875 62.152344 107.707031 62.445312 107.589844 62.730469 C 107.472656 63.015625 107.328125 63.285156 107.15625 63.542969 C 106.984375 63.796875 106.789062 64.035156 106.570312 64.253906 C 106.351562 64.46875 106.117188 64.664062 105.859375 64.835938 C 105.601562 65.007812 105.332031 65.152344 105.046875 65.269531 C 104.761719 65.386719 104.46875 65.476562 104.167969 65.535156 C 103.863281 65.59375 103.558594 65.625 103.25 65.625 C 102.941406 65.625 102.636719 65.59375 102.332031 65.535156 C 102.03125 65.476562 101.738281 65.386719 101.453125 65.269531 C 101.167969 65.152344 100.898438 65.007812 100.640625 64.835938 C 100.382812 64.664062 100.148438 64.46875 99.929688 64.253906 C 99.710938 64.035156 99.515625 63.796875 99.34375 63.542969 C 99.171875 63.285156 99.027344 63.015625 98.910156 62.730469 C 98.792969 62.445312 98.703125 62.152344 98.644531 61.851562 C 98.582031 61.550781 98.554688 61.246094 98.554688 60.9375 C 98.554688 60.628906 98.582031 60.324219 98.644531 60.023438 C 98.703125 59.722656 98.792969 59.429688 98.910156 59.144531 C 99.027344 58.859375 99.171875 58.589844 99.34375 58.332031 C 99.515625 58.078125 99.710938 57.839844 99.929688 57.621094 C 100.148438 57.40625 100.382812 57.210938 100.640625 57.039062 C 100.898438 56.867188 101.167969 56.722656 101.453125 56.605469 C 101.738281 56.488281 102.03125 56.398438 102.332031 56.339844 C 102.636719 56.28125 102.941406 56.25 103.25 56.25 C 103.558594 56.25 103.863281 56.28125 104.167969 56.339844 C 104.46875 56.398438 104.761719 56.488281 105.046875 56.605469 C 105.332031 56.722656 105.601562 56.867188 105.859375 57.039062 C 106.117188 57.210938 106.351562 57.40625 106.570312 57.621094 C 106.789062 57.839844 106.984375 58.078125 107.15625 58.332031 C 107.328125 58.589844 107.472656 58.859375 107.589844 59.144531 C 107.707031 59.429688 107.796875 59.722656 107.855469 60.023438 C 107.917969 60.324219 107.945312 60.628906 107.945312 60.9375 Z M 107.945312 60.9375 " fill-opacity="1" fill-rule="nonzero"/><path fill="#000000" d="M 126.730469 60.9375 C 126.730469 61.246094 126.703125 61.550781 126.640625 61.851562 C 126.582031 62.152344 126.492188 62.445312 126.375 62.730469 C 126.257812 63.015625 126.113281 63.285156 125.941406 63.542969 C 125.769531 63.796875 125.574219 64.035156 125.355469 64.253906 C 125.136719 64.46875 124.902344 64.664062 124.644531 64.835938 C 124.386719 65.007812 124.117188 65.152344 123.832031 65.269531 C 123.546875 65.386719 123.253906 65.476562 122.953125 65.535156 C 122.648438 65.59375 122.34375 65.625 122.035156 65.625 C 121.726562 65.625 121.421875 65.59375 121.121094 65.535156 C 120.816406 65.476562 120.523438 65.386719 120.238281 65.269531 C 119.953125 65.152344 119.683594 65.007812 119.425781 64.835938 C 119.171875 64.664062 118.933594 64.46875 118.714844 64.253906 C 118.496094 64.035156 118.300781 63.796875 118.128906 63.542969 C 117.960938 63.285156 117.816406 63.015625 117.695312 62.730469 C 117.578125 62.445312 117.488281 62.152344 117.429688 61.851562 C 117.371094 61.550781 117.339844 61.246094 117.339844 60.9375 C 117.339844 60.628906 117.371094 60.324219 117.429688 60.023438 C 117.488281 59.722656 117.578125 59.429688 117.695312 59.144531 C 117.816406 58.859375 117.960938 58.589844 118.128906 58.332031 C 118.300781 58.078125 118.496094 57.839844 118.714844 57.621094 C 118.933594 57.40625 119.171875 57.210938 119.425781 57.039062 C 119.683594 56.867188 119.953125 56.722656 120.238281 56.605469 C 120.523438 56.488281 120.816406 56.398438 121.121094 56.339844 C 121.421875 56.28125 121.726562 56.25 122.035156 56.25 C 122.34375 56.25 122.648438 56.28125 122.953125 56.339844 C 123.253906 56.398438 123.546875 56.488281 123.832031 56.605469 C 124.117188 56.722656 124.386719 56.867188 124.644531 57.039062 C 124.902344 57.210938 125.136719 57.40625 125.355469 57.621094 C 125.574219 57.839844 125.769531 58.078125 125.941406 58.332031 C 126.113281 58.589844 126.257812 58.859375 126.375 59.144531 C 126.492188 59.429688 126.582031 59.722656 126.640625 60.023438 C 126.703125 60.324219 126.730469 60.628906 126.730469 60.9375 Z M 126.730469 60.9375 " fill-opacity="1" fill-rule="nonzero"/><path fill="#000000" d="M 145.519531 60.9375 C 145.519531 61.246094 145.488281 61.550781 145.425781 61.851562 C 145.367188 62.152344 145.277344 62.445312 145.160156 62.730469 C 145.042969 63.015625 144.898438 63.285156 144.726562 63.542969 C 144.554688 63.796875 144.359375 64.035156 144.140625 64.253906 C 143.925781 64.46875 143.6875 64.664062 143.429688 64.835938 C 143.175781 65.007812 142.902344 65.152344 142.617188 65.269531 C 142.332031 65.386719 142.039062 65.476562 141.738281 65.535156 C 141.433594 65.59375 141.128906 65.625 140.820312 65.625 C 140.511719 65.625 140.207031 65.59375 139.90625 65.535156 C 139.601562 65.476562 139.308594 65.386719 139.023438 65.269531 C 138.738281 65.152344 138.46875 65.007812 138.210938 64.835938 C 137.957031 64.664062 137.71875 64.46875 137.5 64.253906 C 137.28125 64.035156 137.085938 63.796875 136.917969 63.542969 C 136.746094 63.285156 136.601562 63.015625 136.484375 62.730469 C 136.363281 62.445312 136.273438 62.152344 136.214844 61.851562 C 136.15625 61.550781 136.125 61.246094 136.125 60.9375 C 136.125 60.628906 136.15625 60.324219 136.214844 60.023438 C 136.273438 59.722656 136.363281 59.429688 136.484375 59.144531 C 136.601562 58.859375 136.746094 58.589844 136.917969 58.332031 C 137.085938 58.078125 137.28125 57.839844 137.5 57.621094 C 137.71875 57.40625 137.957031 57.210938 138.210938 57.039062 C 138.46875 56.867188 138.738281 56.722656 139.023438 56.605469 C 139.308594 56.488281 139.601562 56.398438 139.90625 56.339844 C 140.207031 56.28125 140.511719 56.25 140.820312 56.25 C 141.128906 56.25 141.433594 56.28125 141.738281 56.339844 C 142.039062 56.398438 142.332031 56.488281 142.617188 56.605469 C 142.902344 56.722656 143.175781 56.867188 143.429688 57.039062 C 143.6875 57.210938 143.925781 57.40625 144.140625 57.621094 C 144.359375 57.839844 144.554688 58.078125 144.726562 58.332031 C 144.898438 58.589844 145.042969 58.859375 145.160156 59.144531 C 145.277344 59.429688 145.367188 59.722656 145.425781 60.023438 C 145.488281 60.324219 145.519531 60.628906 145.519531 60.9375 Z M 145.519531 60.9375 " fill-opacity="1" fill-rule="nonzero"/><path fill="#000000" d="M 112.644531 262.5 C 112.644531 272.855469 121.054688 281.25 131.429688 281.25 L 206.570312 281.25 C 216.945312 281.25 225.355469 272.855469 225.355469 262.5 L 225.355469 187.5 C 225.355469 177.144531 216.945312 168.75 206.570312 168.75 L 131.429688 168.75 C 121.054688 168.75 112.644531 177.144531 112.644531 187.5 Z M 122.035156 187.5 C 122.035156 182.332031 126.25 178.125 131.429688 178.125 L 206.570312 178.125 C 211.75 178.125 215.964844 182.332031 215.964844 187.5 L 215.964844 262.5 C 215.964844 267.671875 211.75 271.875 206.570312 271.875 L 131.429688 271.875 C 126.25 271.875 122.035156 267.671875 122.035156 262.5 Z M 122.035156 187.5 " fill-opacity="1" fill-rule="nonzero"/><path fill="#000000" d="M 159.9375 159.375 C 170.128906 159.375 178.394531 151.128906 178.394531 140.953125 L 178.394531 112.171875 C 178.394531 101.996094 170.128906 93.75 159.9375 93.75 L 131.097656 93.75 C 120.90625 93.75 112.644531 101.996094 112.644531 112.171875 L 112.644531 140.953125 C 112.644531 151.128906 120.90625 159.375 131.097656 159.375 Z M 122.035156 140.953125 L 122.035156 112.171875 C 122.035156 107.183594 126.101562 103.125 131.097656 103.125 L 159.9375 103.125 C 164.933594 103.125 169 107.183594 169 112.171875 L 169 140.953125 C 169 145.941406 164.933594 150 159.9375 150 L 131.097656 150 C 126.101562 150 122.035156 145.941406 122.035156 140.953125 Z M 122.035156 140.953125 " fill-opacity="1" fill-rule="nonzero"/><g clip-path="url(#3e9baa53eb)"><path fill="#000000" d="M 56.121094 337.5 L 187.949219 337.5 C 198.234375 337.5 206.570312 329.105469 206.570312 318.75 L 206.570312 290.625 L 46.894531 290.625 L 46.894531 84.375 L 197.179688 84.375 L 197.179688 103.46875 C 198.414062 103.257812 206.570312 103.125 206.570312 103.125 L 206.570312 56.25 C 206.570312 45.894531 198.234375 37.5 187.949219 37.5 L 56.121094 37.5 C 45.835938 37.5 37.5 45.894531 37.5 56.25 L 37.5 318.75 C 37.5 329.105469 45.835938 337.5 56.121094 337.5 Z M 46.894531 56.25 C 46.894531 51.082031 51.035156 46.875 56.121094 46.875 L 187.949219 46.875 C 193.035156 46.875 197.179688 51.082031 197.179688 56.25 L 197.179688 75 L 46.894531 75 Z M 46.894531 300 L 197.179688 300 L 197.179688 318.75 C 197.179688 323.921875 193.035156 328.125 187.949219 328.125 L 56.121094 328.125 C 51.035156 328.125 46.894531 323.921875 46.894531 318.75 Z M 46.894531 300 " fill-opacity="1" fill-rule="nonzero"/></g><g clip-path="url(#0b8a5c16fa)"><path fill="#000000" d="M 187.785156 125.660156 L 187.785156 146.214844 C 187.785156 153.484375 193.6875 159.375 200.96875 159.375 L 221.570312 159.375 C 228.847656 159.375 234.75 153.484375 234.75 146.214844 L 234.75 125.660156 C 234.75 118.390625 228.847656 112.5 221.570312 112.5 L 200.96875 112.5 C 193.6875 112.5 187.785156 118.390625 187.785156 125.660156 Z M 225.355469 125.660156 L 225.355469 146.214844 C 225.355469 148.304688 223.65625 150 221.570312 150 L 200.96875 150 C 198.878906 150 197.179688 148.304688 197.179688 146.214844 L 197.179688 125.660156 C 197.179688 123.570312 198.878906 121.875 200.96875 121.875 L 221.570312 121.875 C 223.65625 121.875 225.355469 123.570312 225.355469 125.660156 Z M 225.355469 125.660156 " fill-opacity="1" fill-rule="nonzero"/></g><path fill="#000000" d="M 69.46875 168.75 C 62.1875 168.75 56.285156 174.640625 56.285156 181.910156 L 56.285156 202.464844 C 56.285156 209.734375 62.1875 215.625 69.46875 215.625 L 90.070312 215.625 C 97.347656 215.625 103.25 209.734375 103.25 202.464844 L 103.25 181.910156 C 103.25 174.640625 97.347656 168.75 90.070312 168.75 Z M 93.855469 181.910156 L 93.855469 202.464844 C 93.855469 204.550781 92.15625 206.25 90.070312 206.25 L 69.46875 206.25 C 67.378906 206.25 65.679688 204.550781 65.679688 202.464844 L 65.679688 181.910156 C 65.679688 179.820312 67.378906 178.125 69.46875 178.125 L 90.070312 178.125 C 92.15625 178.125 93.855469 179.820312 93.855469 181.910156 Z M 93.855469 181.910156 " fill-opacity="1" fill-rule="nonzero"/></svg>