<svg xmlns="http://www.w3.org/2000/svg" xmlns:xlink="http://www.w3.org/1999/xlink" width="500" zoomAndPan="magnify" viewBox="0 0 375 374.999991" height="500" preserveAspectRatio="xMidYMid meet" version="1.0"><defs><clipPath id="e69dfbad93"><path d="M 37.5 37.5 L 337 37.5 L 337 337 L 37.5 337 Z M 37.5 37.5 " clip-rule="nonzero"/></clipPath></defs><rect x="-37.5" width="450" fill="#ffffff" y="-37.499999" height="449.999989" fill-opacity="1"/><rect x="-37.5" width="450" fill="#ffffff" y="-37.499999" height="449.999989" fill-opacity="1"/><g clip-path="url(#e69dfbad93)"><path fill="#000000" d="M 266.746094 75.304688 C 263.40625 75.109375 260.859375 72.242188 261.054688 68.902344 C 261.25 65.5625 264.117188 63.011719 267.457031 63.210938 L 305.484375 65.5625 C 308.824219 65.757812 311.375 68.625 311.175781 71.964844 C 311.164062 72.183594 311.140625 72.394531 311.105469 72.605469 L 304.75 110.171875 C 304.199219 113.472656 301.078125 115.703125 297.773438 115.152344 C 294.472656 114.601562 292.246094 111.480469 292.792969 108.179688 L 296.660156 85.335938 L 215.921875 142.246094 C 213.882812 143.679688 211.078125 143.753906 208.929688 142.226562 L 166.617188 112.191406 L 109.277344 157.808594 C 106.660156 159.894531 102.847656 159.457031 100.765625 156.835938 C 98.679688 154.21875 99.117188 150.40625 101.738281 148.324219 L 162.636719 99.871094 C 164.871094 98.09375 167.976562 98.148438 170.136719 99.835938 L 212.445312 129.871094 L 287.988281 76.617188 Z M 139.625 37.5 C 83.222656 37.5 37.5 83.222656 37.5 139.625 C 37.5 196.027344 83.222656 241.75 139.625 241.75 C 162.679688 241.75 183.949219 234.109375 201.039062 221.222656 L 225.523438 245.707031 C 222.632812 250.714844 223.320312 257.265625 227.589844 261.535156 L 298.460938 332.40625 C 303.554688 337.5 311.890625 337.5 316.984375 332.40625 L 332.40625 316.984375 C 337.5 311.890625 337.5 303.554688 332.40625 298.460938 L 261.535156 227.589844 C 257.265625 223.320312 250.714844 222.632812 245.707031 225.523438 L 221.222656 201.039062 C 234.109375 183.949219 241.75 162.679688 241.75 139.625 C 241.75 139.386719 241.742188 139.148438 241.742188 138.90625 C 231.230469 146.320312 220.71875 153.730469 210.203125 161.140625 C 200.996094 191.386719 172.882812 213.398438 139.625 213.398438 C 98.882812 213.398438 65.855469 180.367188 65.855469 139.625 C 65.855469 98.882812 98.882812 65.855469 139.625 65.855469 C 170.523438 65.855469 196.976562 84.851562 207.960938 111.800781 L 212.46875 115 L 233.769531 99.984375 C 218.292969 63.269531 181.96875 37.5 139.625 37.5 Z M 139.625 37.5 " fill-opacity="1" fill-rule="evenodd"/></g></svg>