<svg xmlns="http://www.w3.org/2000/svg" xmlns:xlink="http://www.w3.org/1999/xlink" width="500" zoomAndPan="magnify" viewBox="0 0 375 374.999991" height="500" preserveAspectRatio="xMidYMid meet" version="1.0"><defs><clipPath id="4dbebc8de0"><path d="M 37.5 40 L 286 40 L 286 289 L 37.5 289 Z M 37.5 40 " clip-rule="nonzero"/></clipPath><clipPath id="9d768164a1"><path d="M 87 170 L 256 170 L 256 337.5 L 87 337.5 Z M 87 170 " clip-rule="nonzero"/></clipPath></defs><rect x="-37.5" width="450" fill="#ffffff" y="-37.499999" height="449.999989" fill-opacity="1"/><rect x="-37.5" width="450" fill="#ffffff" y="-37.499999" height="449.999989" fill-opacity="1"/><g clip-path="url(#4dbebc8de0)"><path fill="#000000" d="M 284 84.429688 C 283.378906 81.660156 281.300781 79.449219 278.574219 78.65625 C 275.847656 77.867188 272.910156 78.621094 270.898438 80.632812 L 241.070312 110.460938 L 222.207031 103.53125 L 215.285156 84.679688 L 245.117188 54.847656 C 247.125 52.84375 247.878906 49.902344 247.089844 47.175781 C 246.300781 44.449219 244.085938 42.363281 241.324219 41.742188 C 222.515625 37.492188 203.0625 42.976562 189.289062 56.425781 C 176.171875 69.222656 170.078125 87.75 172.988281 105.988281 C 173.386719 108.496094 172.46875 111.15625 170.53125 113.09375 L 46.273438 237.347656 C 40.652344 242.972656 37.554688 250.453125 37.554688 258.402344 C 37.542969 266.445312 40.703125 273.988281 46.441406 279.640625 C 52.140625 285.25 59.617188 288.042969 67.152344 288.042969 C 74.96875 288.042969 82.839844 285.035156 88.832031 279.042969 L 212.699219 155.175781 C 214.589844 153.285156 217.171875 152.398438 219.617188 152.796875 C 237.570312 155.730469 255.964844 149.816406 268.820312 136.964844 C 282.640625 123.144531 288.316406 103.503906 284 84.429688 Z M 260.261719 128.40625 C 250.152344 138.507812 235.695312 143.167969 221.574219 140.851562 C 215.296875 139.824219 208.777344 141.976562 204.140625 146.613281 L 80.269531 270.484375 C 73.191406 277.558594 61.828125 277.796875 54.933594 271.015625 C 51.527344 267.660156 49.65625 263.1875 49.660156 258.410156 C 49.660156 253.6875 51.496094 249.246094 54.835938 245.910156 L 179.089844 121.652344 C 183.765625 116.976562 185.953125 110.410156 184.941406 104.078125 C 182.648438 89.71875 187.433594 75.144531 197.742188 65.089844 C 206.15625 56.875 217.261719 52.4375 228.738281 52.4375 C 229.285156 52.4375 229.832031 52.449219 230.378906 52.46875 L 205.410156 77.4375 C 202.871094 79.976562 202.039062 83.78125 203.28125 87.105469 L 211.316406 108.992188 C 212.257812 111.539062 214.265625 113.527344 216.777344 114.429688 L 238.605469 122.449219 C 241.964844 123.703125 245.773438 122.875 248.3125 120.335938 L 273.273438 95.375 C 273.730469 107.617188 269.128906 119.535156 260.261719 128.40625 Z M 260.261719 128.40625 " fill-opacity="1" fill-rule="nonzero"/></g><path fill="#000000" d="M 72.171875 245.015625 L 64.382812 252.804688 C 62.015625 255.167969 62.015625 259 64.382812 261.363281 C 65.5625 262.546875 67.113281 263.136719 68.660156 263.136719 C 70.210938 263.136719 71.757812 262.546875 72.941406 261.363281 L 80.730469 253.574219 C 83.097656 251.210938 83.097656 247.378906 80.730469 245.015625 C 78.367188 242.648438 74.535156 242.648438 72.171875 245.015625 Z M 72.171875 245.015625 " fill-opacity="1" fill-rule="nonzero"/><g clip-path="url(#9d768164a1)"><path fill="#000000" d="M 246.328125 218.691406 L 239.148438 218.785156 C 233.9375 218.875 229.238281 215.703125 227.121094 210.753906 L 227.011719 210.492188 C 224.898438 205.601562 225.875 200.039062 229.496094 196.320312 L 234.507812 191.179688 C 236.132812 189.511719 237.015625 187.308594 236.984375 184.976562 C 236.953125 182.644531 236.019531 180.464844 234.277344 178.769531 L 226.789062 171.714844 C 224.359375 169.421875 220.527344 169.535156 218.234375 171.96875 C 215.941406 174.402344 216.054688 178.230469 218.484375 180.523438 L 223.4375 185.191406 L 220.828125 187.875 C 213.765625 195.117188 211.832031 205.878906 215.890625 215.28125 L 215.992188 215.519531 C 220.039062 224.988281 229.144531 231.015625 239.304688 230.890625 L 243.105469 230.839844 L 243.320312 247.425781 L 239.519531 247.472656 C 229.402344 247.605469 220.414062 253.875 216.601562 263.480469 L 216.523438 263.675781 C 212.703125 273.1875 214.917969 283.898438 222.164062 290.957031 L 224.886719 293.609375 L 213.308594 305.492188 L 210.585938 302.839844 C 203.339844 295.78125 192.578125 293.84375 183.195312 297.898438 L 182.9375 298.007812 C 173.46875 302.050781 167.4375 311.203125 167.570312 321.320312 L 167.617188 325.117188 L 151.035156 325.332031 L 150.984375 321.535156 C 150.851562 311.417969 144.585938 302.425781 135.058594 298.648438 L 134.898438 298.582031 L 132.65625 304.207031 L 134.785156 298.539062 C 125.269531 294.71875 114.5625 296.933594 107.5 304.179688 L 104.824219 306.925781 L 98.195312 300.613281 C 95.777344 298.308594 91.945312 298.402344 89.640625 300.824219 C 87.335938 303.242188 87.425781 307.074219 89.847656 309.378906 L 98.824219 317.929688 C 102.265625 321.285156 107.800781 321.214844 111.160156 317.769531 L 116.171875 312.625 C 119.796875 308.910156 125.332031 307.785156 130.253906 309.765625 L 130.550781 309.882812 C 135.542969 311.863281 138.8125 316.5 138.878906 321.691406 L 138.972656 328.875 C 139.035156 333.644531 142.9375 337.484375 147.695312 337.484375 C 147.734375 337.484375 147.773438 337.484375 147.808594 337.484375 L 171.15625 337.179688 C 173.488281 337.148438 175.667969 336.214844 177.292969 334.542969 C 178.917969 332.875 179.796875 330.671875 179.769531 328.34375 L 179.675781 321.160156 C 179.605469 315.96875 182.753906 311.25 187.671875 309.148438 L 187.96875 309.023438 C 192.859375 306.914062 198.417969 307.886719 202.136719 311.511719 L 207.28125 316.519531 C 210.722656 319.878906 216.257812 319.808594 219.617188 316.363281 L 235.917969 299.636719 C 237.542969 297.964844 238.421875 295.761719 238.390625 293.433594 C 238.363281 291.105469 237.425781 288.925781 235.757812 287.296875 L 230.613281 282.285156 C 226.894531 278.664062 225.773438 273.128906 227.753906 268.191406 L 227.867188 267.910156 C 229.851562 262.917969 234.484375 259.648438 239.675781 259.582031 L 246.863281 259.488281 C 251.667969 259.421875 255.53125 255.457031 255.46875 250.648438 L 255.164062 227.304688 C 255.101562 222.492188 251.117188 218.632812 246.328125 218.691406 Z M 246.328125 218.691406 " fill-opacity="1" fill-rule="nonzero"/></g><path fill="#000000" d="M 158.679688 275.3125 C 149.292969 275.488281 140.453125 271.902344 133.742188 265.359375 C 131.351562 263.027344 127.515625 263.078125 125.183594 265.472656 C 122.851562 267.867188 122.898438 271.699219 125.292969 274.03125 C 134.171875 282.679688 145.835938 287.421875 158.207031 287.421875 C 158.414062 287.421875 158.625 287.417969 158.835938 287.417969 C 171.4375 287.253906 183.222656 282.191406 192.019531 273.164062 C 210.175781 254.53125 209.785156 224.597656 191.152344 206.441406 C 188.757812 204.109375 184.925781 204.15625 182.59375 206.550781 C 180.257812 208.945312 180.308594 212.777344 182.703125 215.109375 C 196.558594 228.609375 196.84375 250.863281 183.347656 264.714844 C 176.808594 271.425781 168.046875 275.191406 158.679688 275.3125 Z M 158.679688 275.3125 " fill-opacity="1" fill-rule="nonzero"/></svg>