<svg xmlns="http://www.w3.org/2000/svg" xmlns:xlink="http://www.w3.org/1999/xlink" width="500" zoomAndPan="magnify" viewBox="0 0 375 374.999991" height="500" preserveAspectRatio="xMidYMid meet" version="1.0"><defs><clipPath id="31f02cdbee"><path d="M 37.5 37.5 L 337.5 37.5 L 337.5 337.5 L 37.5 337.5 Z M 37.5 37.5 " clip-rule="nonzero"/></clipPath></defs><rect x="-37.5" width="450" fill="#ffffff" y="-37.499999" height="449.999989" fill-opacity="1"/><rect x="-37.5" width="450" fill="#ffffff" y="-37.499999" height="449.999989" fill-opacity="1"/><path fill="#000000" d="M 195.714844 96.136719 C 149.84375 96.136719 112.5625 133.414062 112.5625 179.285156 C 112.5625 194.324219 116.605469 208.855469 124.1875 221.621094 L 112.941406 262.183594 L 155.527344 252.074219 C 167.785156 258.898438 181.5625 262.4375 195.714844 262.4375 C 241.585938 262.4375 278.863281 225.15625 278.863281 179.285156 C 278.863281 133.414062 241.585938 96.136719 195.714844 96.136719 Z M 195.714844 248.789062 C 183.078125 248.789062 170.820312 245.378906 160.078125 239.058594 L 157.675781 237.667969 L 132.277344 243.609375 L 138.972656 219.472656 L 137.332031 216.945312 C 130.128906 205.824219 126.335938 192.679688 126.335938 179.285156 C 126.335938 140.996094 157.550781 109.78125 195.839844 109.78125 C 234.128906 109.78125 265.34375 140.996094 265.34375 179.285156 C 265.21875 217.703125 234.003906 248.789062 195.714844 248.789062 Z M 195.714844 248.789062 " fill-opacity="1" fill-rule="nonzero"/><path fill="#000000" d="M 235.265625 209.234375 C 234.636719 212.648438 227.304688 216.945312 222.628906 218.207031 C 211.003906 221.242188 194.703125 212.394531 178.527344 198.367188 C 162.226562 184.214844 151.230469 169.304688 152.75 157.425781 C 153.253906 152.75 156.664062 144.789062 159.953125 143.777344 C 163.109375 142.765625 165.386719 143.648438 168.671875 144.789062 C 170.3125 146.554688 172.335938 148.832031 174.609375 151.359375 C 177.644531 154.769531 179.664062 157.929688 181.054688 160.078125 C 182.066406 161.847656 181.6875 164.121094 180.171875 165.511719 L 174.609375 170.441406 C 173.597656 171.324219 173.21875 172.839844 173.851562 173.976562 C 175.621094 177.644531 179.664062 185.226562 185.605469 190.40625 C 191.542969 195.585938 199.632812 198.492188 203.421875 199.757812 C 204.6875 200.136719 206.078125 199.632812 206.835938 198.492188 L 211.003906 192.300781 C 212.140625 190.660156 214.417969 189.902344 216.3125 190.660156 C 218.585938 191.671875 222 193.1875 225.789062 195.714844 C 228.695312 197.609375 231.097656 199.378906 233.121094 200.769531 C 234.636719 203.800781 235.898438 205.949219 235.265625 209.234375 Z M 235.265625 209.234375 " fill-opacity="1" fill-rule="nonzero"/><g clip-path="url(#31f02cdbee)"><path fill="#000000" d="M 187.5 337.5 C 104.855469 337.5 37.5 270.273438 37.5 187.5 C 37.5 104.855469 104.855469 37.5 187.5 37.5 C 270.144531 37.5 337.5 104.855469 337.5 187.5 C 337.5 270.273438 270.273438 337.5 187.5 337.5 Z M 187.5 45.714844 C 109.277344 45.714844 45.714844 109.277344 45.714844 187.5 C 45.714844 265.722656 109.277344 329.285156 187.5 329.285156 C 265.722656 329.285156 329.285156 265.722656 329.285156 187.5 C 329.285156 109.277344 265.722656 45.714844 187.5 45.714844 Z M 187.5 45.714844 " fill-opacity="1" fill-rule="nonzero"/></g></svg>